<?xml version="1.0" encoding="UTF-8" standalone="no"?>
<svg
   xmlns:dc="http://purl.org/dc/elements/1.1/"
   xmlns:cc="http://creativecommons.org/ns#"
   xmlns:rdf="http://www.w3.org/1999/02/22-rdf-syntax-ns#"
   xmlns:svg="http://www.w3.org/2000/svg"
   xmlns="http://www.w3.org/2000/svg"
   xmlns:sodipodi="http://sodipodi.sourceforge.net/DTD/sodipodi-0.dtd"
   xmlns:inkscape="http://www.inkscape.org/namespaces/inkscape"
   width="564pt"
   height="809pt"
   viewBox="0 0 564 809"
   id="svg2"
   sodipodi:version="0.32"
   inkscape:version="0.46"
   sodipodi:docname="FVL-Wappen_Vektorgrafik.svg"
   inkscape:output_extension="org.inkscape.output.svg.inkscape">
  <metadata
     id="metadata27">
    <rdf:RDF>
      <cc:Work
         rdf:about="">
        <dc:format>image/svg+xml</dc:format>
        <dc:type
           rdf:resource="http://purl.org/dc/dcmitype/StillImage" />
      </cc:Work>
    </rdf:RDF>
  </metadata>
  <defs
     id="defs25">
    <inkscape:perspective
       sodipodi:type="inkscape:persp3d"
       inkscape:vp_x="0 : 505.625 : 1"
       inkscape:vp_y="0 : 1000 : 0"
       inkscape:vp_z="705 : 505.625 : 1"
       inkscape:persp3d-origin="352.5 : 337.08333 : 1"
       id="perspective29" />
  </defs>
  <sodipodi:namedview
     inkscape:window-height="669"
     inkscape:window-width="640"
     inkscape:pageshadow="2"
     inkscape:pageopacity="0.0"
     guidetolerance="10.0"
     gridtolerance="10.0"
     objecttolerance="10.0"
     borderopacity="1.0"
     bordercolor="#666666"
     pagecolor="#ffffff"
     id="base"
     showgrid="false"
     inkscape:zoom="0.45686032"
     inkscape:cx="352.5"
     inkscape:cy="505.625"
     inkscape:window-x="115"
     inkscape:window-y="115"
     inkscape:current-layer="g4" />
  <g
     transform="translate(82.6689, 145.062)"
     style="fill:#ffffff; fill-rule:evenodd; stroke:none; stroke-width:1.84521; stroke-linecap:butt; stroke-linejoin:miter; stroke-dasharray:none;"
     id="g4">
    <path
       d="M203.567 435.27 C221.223 390.768 407.134 433.657 357.875 128.669 C353.199 98.4365 367.953 56.7569 394.477 38.1328 C394.477 38.1328 354.731 0 354.731 0 C318.694 28.2168 282.656 29.1836 246.699 0 C246.699 0 160.435 0 160.435 0 C124.478 29.1836 88.4404 28.2168 52.4033 0 C52.4033 0 12.6562 38.1328 12.6562 38.1328 C39.1807 56.7569 53.9346 98.4365 49.2579 128.669 C0 433.657 185.911 390.768 203.567 435.27 Z"
       id="path6" />
  </g>
  <g
     transform="translate(95.3252, 145.062)"
     style="fill:none; stroke:#161413; stroke-width:8.06145; stroke-linecap:butt; stroke-linejoin:miter; stroke-dasharray:none;"
     id="g8">
    <path
       d="M 190.911,435.27 C 190.911,435.27 191.861,433.246 191.861,433.246 C 191.861,433.246 193.047,431.34 193.047,431.34 C 193.047,431.34 194.461,429.542 194.461,429.542 C 194.461,429.542 196.095,427.843 196.095,427.843 C 196.095,427.843 197.938,426.232 197.938,426.232 C 197.938,426.232 199.981,424.699 199.981,424.699 C 199.981,424.699 202.215,423.234 202.215,423.234 C 202.215,423.234 204.631,421.828 204.631,421.828 C 204.631,421.828 207.219,420.469 207.219,420.469 C 207.219,420.469 209.971,419.15 209.971,419.15 C 209.971,419.15 212.877,417.858 212.877,417.858 C 212.877,417.858 215.928,416.585 215.928,416.585 C 215.928,416.585 219.115,415.321 219.115,415.321 C 219.115,415.321 222.428,414.054 222.428,414.054 C 222.428,414.054 225.859,412.777 225.859,412.777 C 225.859,412.777 229.397,411.478 229.397,411.478 C 229.397,411.478 233.033,410.147 233.033,410.147 C 233.033,410.147 236.76,408.776 236.76,408.776 C 236.76,408.776 240.567,407.353 240.567,407.353 C 240.567,407.353 244.445,405.869 244.445,405.869 C 244.445,405.869 248.384,404.313 248.384,404.313 C 248.384,404.313 252.376,402.676 252.376,402.676 C 252.376,402.676 256.412,400.949 256.412,400.949 C 256.412,400.949 260.482,399.12 260.482,399.12 C 260.482,399.12 264.576,397.179 264.576,397.179 C 264.576,397.179 268.686,395.118 268.686,395.118 C 268.686,395.118 272.803,392.926 272.803,392.926 C 272.803,392.926 276.916,390.592 276.916,390.592 C 276.916,390.592 281.018,388.109 281.018,388.109 C 281.018,388.109 285.098,385.463 285.098,385.463 C 285.098,385.463 289.148,382.648 289.148,382.648 C 289.148,382.648 293.157,379.651 293.157,379.651 C 293.157,379.651 297.118,376.463 297.118,376.463 C 297.118,376.463 301.021,373.076 301.021,373.076 C 301.021,373.076 304.856,369.477 304.856,369.477 C 304.856,369.477 308.614,365.657 308.614,365.657 C 308.614,365.657 312.287,361.607 312.287,361.607 C 312.287,361.607 315.864,357.316 315.864,357.316 C 315.864,357.316 319.337,352.775 319.337,352.775 C 319.337,352.775 322.696,347.973 322.696,347.973 C 322.696,347.973 325.933,342.901 325.933,342.901 C 325.933,342.901 329.037,337.547 329.037,337.547 C 329.037,337.547 332,331.905 332,331.905 C 332,331.905 334.813,325.961 334.813,325.961 C 334.813,325.961 337.465,319.708 337.465,319.708 C 337.465,319.708 339.948,313.133 339.948,313.133 C 339.948,313.133 342.254,306.228 342.254,306.228 C 342.254,306.228 344.371,298.984 344.371,298.984 C 344.371,298.984 346.293,291.389 346.293,291.389 C 346.293,291.389 348.008,283.434 348.008,283.434 C 348.008,283.434 349.507,275.109 349.507,275.109 C 349.507,275.109 350.782,266.404 350.782,266.404 C 350.782,266.404 351.824,257.308 351.824,257.308 C 351.824,257.308 352.623,247.813 352.623,247.813 C 352.623,247.813 353.17,237.908 353.17,237.908 C 353.17,237.908 353.455,227.583 353.455,227.583 C 353.455,227.583 353.469,216.828 353.469,216.828 C 353.469,216.828 353.204,205.632 353.204,205.632 C 353.204,205.632 352.65,193.988 352.65,193.988 C 352.65,193.988 351.797,181.883 351.797,181.883 C 351.797,181.883 350.637,169.309 350.637,169.309 C 350.637,169.309 349.159,156.255 349.159,156.255 C 349.159,156.255 347.357,142.712 347.357,142.712 C 347.357,142.712 345.219,128.669 345.219,128.669 C 345.219,128.669 344.568,122.875 344.568,122.875 C 344.568,122.875 344.361,116.862 344.361,116.862 C 344.361,116.862 344.587,110.683 344.587,110.683 C 344.587,110.683 345.235,104.387 345.235,104.387 C 345.235,104.387 346.293,98.0255 346.293,98.0255 C 346.293,98.0255 347.751,91.6475 347.751,91.6475 C 347.751,91.6475 349.597,85.3047 349.597,85.3047 C 349.597,85.3047 351.82,79.0479 351.82,79.0479 C 351.82,79.0479 354.408,72.9258 354.408,72.9258 C 354.408,72.9258 357.351,66.9912 357.351,66.9912 C 357.351,66.9912 360.637,61.294 360.637,61.294 C 360.637,61.294 364.254,55.8838 364.254,55.8838 C 364.254,55.8838 368.193,50.8125 368.193,50.8125 C 368.193,50.8125 372.441,46.1299 372.441,46.1299 C 372.441,46.1299 376.988,41.8858 376.988,41.8858 C 376.988,41.8858 381.821,38.1328 381.821,38.1328 C 381.821,38.1328 377.81678,34.291102 372.35025,29.046445 C 360.59415,17.767498 342.075,-5.9618976e-14 342.075,-5.9618976e-14 C 342.075,-5.9618976e-14 335.318,4.96978 335.318,4.96978 C 335.318,4.96978 328.561,9.29788 328.561,9.29788 C 328.561,9.29788 321.805,12.9785 321.805,12.9785 C 321.805,12.9785 315.048,16.0078 315.048,16.0078 C 315.048,16.0078 308.292,18.3809 308.292,18.3809 C 308.292,18.3809 301.537,20.0948 301.537,20.0948 C 301.537,20.0948 294.782,21.1436 294.782,21.1436 C 294.782,21.1436 288.029,21.5244 288.029,21.5244 C 288.029,21.5244 281.276,21.2334 281.276,21.2334 C 281.276,21.2334 274.525,20.2647 274.525,20.2647 C 274.525,20.2647 267.774,18.6143 267.774,18.6143 C 267.774,18.6143 261.025,16.2793 261.025,16.2793 C 261.025,16.2793 254.277,13.2549 254.277,13.2549 C 254.277,13.2549 247.53,9.53618 247.53,9.53618 C 247.53,9.53618 240.785,5.11918 240.785,5.11918 C 240.785,5.11918 234.043,-5.9618976e-14 234.043,-5.9618976e-14 C 234.043,-5.9618976e-14 215.08534,-5.9618976e-14 194.94431,-5.9618976e-14 C 172.1214,-5.9618976e-14 147.779,-5.9618976e-14 147.779,-5.9618976e-14 C 147.779,-5.9618976e-14 141.036,5.11918 141.036,5.11918 C 141.036,5.11918 134.291,9.53618 134.291,9.53618 C 134.291,9.53618 127.545,13.2549 127.545,13.2549 C 127.545,13.2549 120.797,16.2793 120.797,16.2793 C 120.797,16.2793 114.048,18.6143 114.048,18.6143 C 114.048,18.6143 107.297,20.2647 107.297,20.2647 C 107.297,20.2647 100.546,21.2334 100.546,21.2334 C 100.546,21.2334 93.7928,21.5244 93.7928,21.5244 C 93.7928,21.5244 87.0391,21.1436 87.0391,21.1436 C 87.0391,21.1436 80.2842,20.0948 80.2842,20.0948 C 80.2842,20.0948 73.5293,18.3809 73.5293,18.3809 C 73.5293,18.3809 66.7734,16.0078 66.7734,16.0078 C 66.7734,16.0078 60.0166,12.9785 60.0166,12.9785 C 60.0166,12.9785 53.2607,9.29788 53.2607,9.29788 C 53.2607,9.29788 46.5039,4.96978 46.5039,4.96978 C 46.5039,4.96978 39.7471,-5.9618976e-14 39.7471,-5.9618976e-14 C 39.7471,-5.9618976e-14 31.477994,7.9332622 22.483147,16.56279 C 11.757525,26.852798 5.294376e-15,38.1328 5.294376e-15,38.1328 C 5.294376e-15,38.1328 4.833,41.8858 4.833,41.8858 C 4.833,41.8858 9.3799,46.1299 9.3799,46.1299 C 9.3799,46.1299 13.6279,50.8125 13.6279,50.8125 C 13.6279,50.8125 17.5664,55.8838 17.5664,55.8838 C 17.5664,55.8838 21.1836,61.294 21.1836,61.294 C 21.1836,61.294 24.4697,66.9912 24.4697,66.9912 C 24.4697,66.9912 27.4121,72.9258 27.4121,72.9258 C 27.4121,72.9258 30.001,79.0479 30.001,79.0479 C 30.001,79.0479 32.2236,85.3047 32.2236,85.3047 C 32.2236,85.3047 34.0693,91.6475 34.0693,91.6475 C 34.0693,91.6475 35.5264,98.0255 35.5264,98.0255 C 35.5264,98.0255 36.585,104.387 36.585,104.387 C 36.585,104.387 37.2334,110.683 37.2334,110.683 C 37.2334,110.683 37.459,116.862 37.459,116.862 C 37.459,116.862 37.2519,122.875 37.2519,122.875 C 37.2519,122.875 36.6016,128.669 36.6016,128.669 C 36.6016,128.669 34.4629,142.712 34.4629,142.712 C 34.4629,142.712 32.6602,156.255 32.6602,156.255 C 32.6602,156.255 31.1826,169.309 31.1826,169.309 C 31.1826,169.309 30.0225,181.883 30.0225,181.883 C 30.0225,181.883 29.1699,193.988 29.1699,193.988 C 29.1699,193.988 28.6152,205.632 28.6152,205.632 C 28.6152,205.632 28.3506,216.828 28.3506,216.828 C 28.3506,216.828 28.3652,227.583 28.3652,227.583 C 28.3652,227.583 28.6504,237.908 28.6504,237.908 C 28.6504,237.908 29.1973,247.813 29.1973,247.813 C 29.1973,247.813 29.9951,257.308 29.9951,257.308 C 29.9951,257.308 31.0371,266.404 31.0371,266.404 C 31.0371,266.404 32.3125,275.109 32.3125,275.109 C 32.3125,275.109 33.8125,283.434 33.8125,283.434 C 33.8125,283.434 35.5273,291.389 35.5273,291.389 C 35.5273,291.389 37.4482,298.984 37.4482,298.984 C 37.4482,298.984 39.5664,306.228 39.5664,306.228 C 39.5664,306.228 41.8711,313.133 41.8711,313.133 C 41.8711,313.133 44.3545,319.708 44.3545,319.708 C 44.3545,319.708 47.0078,325.961 47.0078,325.961 C 47.0078,325.961 49.8203,331.905 49.8203,331.905 C 49.8203,331.905 52.7832,337.547 52.7832,337.547 C 52.7832,337.547 55.8867,342.901 55.8867,342.901 C 55.8867,342.901 59.124,347.973 59.124,347.973 C 59.124,347.973 62.4834,352.775 62.4834,352.775 C 62.4834,352.775 65.9561,357.316 65.9561,357.316 C 65.9561,357.316 69.5332,361.607 69.5332,361.607 C 69.5332,361.607 73.2061,365.657 73.2061,365.657 C 73.2061,365.657 76.9639,369.477 76.9639,369.477 C 76.9639,369.477 80.7998,373.076 80.7998,373.076 C 80.7998,373.076 84.7021,376.463 84.7021,376.463 C 84.7021,376.463 88.6631,379.651 88.6631,379.651 C 88.6631,379.651 92.6728,382.648 92.6728,382.648 C 92.6728,382.648 96.7228,385.463 96.7228,385.463 C 96.7228,385.463 100.803,388.109 100.803,388.109 C 100.803,388.109 104.904,390.592 104.904,390.592 C 104.904,390.592 109.019,392.926 109.019,392.926 C 109.019,392.926 113.135,395.118 113.135,395.118 C 113.135,395.118 117.245,397.179 117.245,397.179 C 117.245,397.179 121.339,399.12 121.339,399.12 C 121.339,399.12 125.409,400.949 125.409,400.949 C 125.409,400.949 129.445,402.676 129.445,402.676 C 129.445,402.676 133.437,404.313 133.437,404.313 C 133.437,404.313 137.376,405.869 137.376,405.869 C 137.376,405.869 141.254,407.353 141.254,407.353 C 141.254,407.353 145.061,408.776 145.061,408.776 C 145.061,408.776 148.787,410.147 148.787,410.147 C 148.787,410.147 152.424,411.478 152.424,411.478 C 152.424,411.478 155.963,412.777 155.963,412.777 C 155.963,412.777 159.393,414.054 159.393,414.054 C 159.393,414.054 162.706,415.321 162.706,415.321 C 162.706,415.321 165.893,416.585 165.893,416.585 C 165.893,416.585 168.944,417.858 168.944,417.858 C 168.944,417.858 171.85,419.15 171.85,419.15 C 171.85,419.15 174.602,420.469 174.602,420.469 C 174.602,420.469 177.191,421.828 177.191,421.828 C 177.191,421.828 179.607,423.234 179.607,423.234 C 179.607,423.234 181.841,424.699 181.841,424.699 C 181.841,424.699 183.884,426.232 183.884,426.232 C 183.884,426.232 185.727,427.843 185.727,427.843 C 185.727,427.843 187.361,429.542 187.361,429.542 C 187.361,429.542 188.775,431.34 188.775,431.34 C 188.775,431.34 189.961,433.246 189.961,433.246 C 189.961,433.246 190.911,435.27 190.911,435.27"
       id="path10"
       sodipodi:nodetypes="cccccccccccccccccccccccccccccccccccccccccccccccccccccccccccccccccccccccccccccccccscccccccccccccccccscccccccccccccccccsccccccccccccccccccccccccccccccccccccccccccccccccccccccccccccccccccccccccccccccccc" />
  </g>
  <g
     transform="translate(177.018, 279.784)"
     style="fill:#161413; fill-rule:evenodd; stroke:none; stroke-width:8.06145; stroke-linecap:butt; stroke-linejoin:miter; stroke-dasharray:none;"
     id="g12">
    <path
       d="M120.523 189.983 C118.185 187.413 114.856 183.962 110.524 179.629 C106.981 176.086 104.27 173.436 102.391 171.68 C100.518 169.918 99.1234 168.657 98.2114 167.905 C97.3004 167.139 96.7804 166.693 96.6454 166.558 C96.4494 166.363 96.4494 166.167 96.6454 165.971 C97.1534 165.463 97.8874 165.047 98.8664 164.717 C99.8454 164.386 100.494 164.374 100.8 164.679 C102.22 166.099 104.117 168.106 106.497 170.719 C108.883 173.326 111.484 176.209 114.299 179.366 C117.12 182.517 118.925 184.518 119.709 185.351 C119.709 185.351 119.782 185.277 119.782 185.277 C119.189 183.84 118.638 182.041 118.111 179.886 C117.591 177.738 117.334 175.621 117.346 173.552 C117.358 171.472 117.855 169.949 118.827 168.975 C119.439 168.364 120.051 168.021 120.663 167.96 C121.281 167.892 122.138 168.149 123.257 168.719 C124.365 169.288 126.073 170.346 128.367 171.907 C130.337 173.29 131.904 174.257 133.073 174.802 C134.235 175.352 135.049 175.639 135.508 175.658 C135.967 175.688 136.347 175.639 136.647 175.523 C136.94 175.401 137.179 175.419 137.338 175.578 C137.466 175.707 137.497 176.055 137.442 176.612 C137.393 177.176 137.265 177.757 137.081 178.369 C136.891 178.974 136.695 179.379 136.487 179.587 C136.182 179.892 135.411 179.721 134.193 179.066 C132.963 178.411 131.023 177.279 128.379 175.664 C125.73 174.043 123.668 172.886 122.181 172.182 C120.693 171.491 119.721 171.375 119.262 171.834 C118.656 172.439 118.46 173.822 118.674 175.982 C118.882 178.148 119.402 180.468 120.229 182.933 C121.067 185.399 121.997 187.309 123.013 188.655 C122.126 189.42 121.294 189.861 120.523 189.983 Z M98.3404 206.132 C96.8164 204.608 95.9784 202.57 95.8134 200.018 C95.6484 197.467 96.0514 194.897 97.0064 192.302 C97.9614 189.708 99.2284 187.621 100.8 186.049 C102.966 183.883 104.716 183.381 106.05 184.543 C106.46 184.953 106.565 185.253 106.368 185.449 C106.295 185.522 105.898 185.761 105.163 186.165 C104.429 186.568 103.652 187.052 102.832 187.615 C102.005 188.183 101.161 188.882 100.28 189.714 C99.1664 190.828 98.3644 192.143 97.8814 193.655 C97.3984 195.166 97.3064 196.677 97.6184 198.177 C97.9184 199.677 98.6154 200.973 99.6924 202.051 C101.075 203.433 102.636 203.855 104.361 203.317 C106.093 202.772 107.806 201.659 109.495 199.969 C110.432 199.033 111.197 198.073 111.79 197.088 C112.378 196.096 112.824 195.233 113.118 194.511 C113.406 193.783 113.711 192.951 114.036 191.99 C114.354 191.036 114.586 190.485 114.721 190.35 C114.893 190.178 115.07 190.197 115.26 190.386 C115.535 190.662 115.542 191.28 115.266 192.254 C114.991 193.226 114.501 194.388 113.779 195.748 C113.063 197.099 112.188 198.489 111.172 199.909 C110.144 201.328 109.048 202.619 107.88 203.788 C103.92 207.747 100.739 208.531 98.3404 206.132 Z M73.6674 199.67 C73.5694 199.572 73.4474 199.499 73.2944 199.443 C73.0734 199.04 73.0374 198.758 73.1904 198.605 C73.5514 198.244 74.0344 197.907 74.6524 197.583 C75.2714 197.259 75.7054 197.228 75.9744 197.498 C75.9744 197.498 78.7714 200.294 78.7714 200.294 C79.2114 200.734 79.3034 201.071 79.0584 201.316 C78.7464 201.628 78.2934 201.922 77.6754 202.197 C77.0694 202.472 76.6414 202.484 76.3904 202.234 C75.5764 201.53 74.6714 200.674 73.6674 199.67 Z M68.5334 204.803 C68.0194 204.29 67.8844 203.911 68.1294 203.666 C68.4664 203.329 68.9254 203.029 69.5064 202.766 C70.0754 202.503 70.5344 202.448 70.8774 202.594 C70.8774 202.594 72.9024 204.62 72.9024 204.62 C73.5764 205.293 73.9614 205.716 74.0594 205.899 C74.1634 206.077 74.1384 206.236 73.9984 206.377 C73.6734 206.701 73.2024 207.012 72.5664 207.306 C71.9364 207.606 71.4954 207.631 71.2444 207.38 C70.4424 206.664 69.5374 205.807 68.5334 204.803 Z M81.3354 207.055 C82.9264 205.465 84.6574 204.344 86.5244 203.69 C88.3964 203.042 90.1524 203.537 91.7984 205.183 C92.6554 206.04 93.3284 207.349 93.7994 209.105 C94.2834 210.862 94.2044 212.887 93.5734 215.17 C92.9424 217.452 91.4994 219.728 89.2294 221.999 C85.3184 225.909 81.9044 226.411 78.9854 223.492 C77.7064 222.214 76.9654 220.592 76.7634 218.639 C76.5564 216.681 76.8614 214.662 77.6884 212.588 C78.5074 210.507 79.7254 208.665 81.3354 207.055 Z M90.8074 208.818 C89.6934 207.704 88.5064 207.093 87.2704 206.995 C86.0284 206.89 84.8534 207.111 83.7464 207.668 C82.6444 208.219 81.6594 208.934 80.7904 209.803 C79.8844 210.709 79.2114 211.774 78.7524 213.004 C78.2994 214.24 78.1594 215.458 78.3424 216.669 C78.5204 217.886 79.0524 218.933 79.9454 219.827 C80.8884 220.769 81.9964 221.302 83.2684 221.424 C84.5354 221.552 85.7904 221.35 87.0204 220.843 C88.2554 220.329 89.3144 219.636 90.1894 218.761 C91.1504 217.802 91.8354 216.712 92.2454 215.494 C92.6554 214.276 92.7414 213.077 92.4964 211.902 C92.2524 210.727 91.6894 209.699 90.8074 208.818 Z M60.9704 245.937 C57.4884 242.15 54.6244 239.139 52.3784 236.893 C50.0964 234.611 48.1874 232.8 46.6384 231.46 C45.0964 230.113 43.8664 229.116 42.9614 228.468 C42.0614 227.812 41.3154 227.323 40.7274 226.992 C40.1404 226.662 39.8214 226.466 39.7854 226.429 C39.6324 226.276 39.7054 226.056 39.9934 225.768 C40.3604 225.401 40.9174 225.052 41.6634 224.722 C42.4044 224.386 43.1504 224.202 43.9034 224.172 C44.6624 224.135 45.2554 224.337 45.6904 224.771 C46.1614 225.242 46.8894 226.044 47.8684 227.17 C48.8544 228.29 50.2424 229.886 52.0354 231.962 C53.8354 234.029 55.5424 235.969 57.1574 237.768 C58.7794 239.561 60.2234 241.115 61.4834 242.413 C61.9244 242.756 62.4754 243.258 63.1364 243.919 C65.4804 241.575 67.7624 239.256 69.9894 236.967 C72.2174 234.666 73.9184 232.879 75.0994 231.6 C76.2744 230.327 77.1794 229.336 77.7974 228.633 C78.4164 227.941 78.8074 227.512 78.9664 227.353 C79.1624 227.158 79.4324 227.231 79.7804 227.58 C79.9214 227.72 79.8234 227.966 79.4754 228.314 C78.9114 229.195 77.9874 230.486 76.6964 232.194 C75.4054 233.888 73.7774 235.969 71.7894 238.435 C69.8064 240.895 68.0984 242.958 66.6674 244.635 C65.2414 246.304 64.0854 247.584 63.2094 248.459 C61.8694 249.799 60.5354 250.546 59.2074 250.686 C57.8794 250.84 56.8884 250.583 56.2394 249.933 C55.9704 249.665 55.9274 249.438 56.1234 249.242 C56.1484 249.218 56.7594 248.85 57.9474 248.14 C59.1404 247.437 60.1444 246.703 60.9704 245.937 Z M202.94 10.641 C202.743 10.446 202.719 10.274 202.859 10.134 C203.19 9.803 203.802 9.461 204.695 9.094 C205.595 8.732 206.158 8.659 206.384 8.886 C206.843 9.344 207.884 10.617 209.518 12.691 C211.151 14.778 212.442 16.473 213.403 17.802 C213.403 17.802 213.471 17.734 213.471 17.734 C211.69 12.465 211.023 8.567 211.463 6.046 C211.903 3.525 212.571 1.817 213.471 0.918 C214.131 0.258 214.865 0 215.661 0.159 C216.463 0.312 217.54 0.814 218.899 1.659 C218.899 1.659 226.027 6.205 226.027 6.205 C227.147 6.995 227.961 7.136 228.481 6.615 C228.585 6.511 228.683 6.511 228.787 6.615 C229.068 6.896 229.045 7.533 228.726 8.524 C228.407 9.515 228.102 10.152 227.82 10.433 C227.594 10.66 227.349 10.721 227.085 10.617 C226.835 10.513 226.29 10.225 225.47 9.772 C225.47 9.772 217.723 5.036 217.723 5.036 C216.836 4.504 216.028 4.186 215.306 4.076 C214.584 3.966 214.046 4.088 213.69 4.443 C212.999 5.135 212.644 6.334 212.626 8.052 C212.613 9.766 212.883 11.688 213.458 13.805 C214.022 15.923 214.774 17.886 215.716 19.685 C215.753 19.771 215.802 19.869 215.857 19.973 C215.906 20.071 215.942 20.17 215.942 20.255 C215.948 20.346 215.905 20.438 215.82 20.524 C215.532 20.812 215.11 21.063 214.56 21.271 C214.009 21.491 213.593 21.454 213.317 21.179 C213.17 21.032 212.821 20.61 212.277 19.93 C211.727 19.245 211.035 18.431 210.19 17.477 C209.346 16.522 208.281 15.409 207.009 14.136 C206.024 13.15 205.068 12.294 204.15 11.559 C203.232 10.838 202.823 10.525 202.94 10.641 Z M188.1 10.415 C188.35 10.165 188.815 9.895 189.476 9.601 C190.143 9.302 190.565 9.21 190.743 9.313 C190.914 9.35 191.771 10.134 193.313 11.676 C193.974 12.337 194.212 12.747 194.042 12.918 C193.784 13.176 193.393 13.432 192.866 13.677 C192.34 13.922 191.869 14.001 191.453 13.903 C191.306 13.843 190.792 13.426 189.905 12.648 C189.024 11.865 188.399 11.302 188.032 10.935 C187.885 10.789 187.904 10.611 188.1 10.415 Z M194.971 18.89 C194.831 18.75 194.849 18.585 195.045 18.388 C195.486 17.948 196.171 17.508 197.107 17.073 C198.037 16.633 198.686 16.595 199.047 16.957 C199.604 17.513 200.864 18.909 202.816 21.13 C204.774 23.357 206.146 24.863 206.941 25.658 C207.357 26.074 207.853 26.546 208.44 27.084 C209.027 27.623 209.401 27.971 209.554 28.125 C209.743 28.314 209.719 28.534 209.475 28.779 C209.101 29.152 208.624 29.446 208.061 29.654 C207.498 29.862 207.051 29.807 206.727 29.483 C206.727 29.483 199.787 22.544 199.787 22.544 C198.673 21.429 197.798 20.64 197.156 20.17 C196.52 19.692 196.005 19.374 195.627 19.215 C195.247 19.055 195.026 18.946 194.971 18.89 Z M184.208 47.143 C183.681 46.617 183.118 45.735 182.531 44.5 C181.938 43.258 181.54 41.783 181.344 40.069 C181.136 38.356 181.38 36.496 182.054 34.476 C182.727 32.469 184.03 30.493 185.958 28.565 C187.09 27.432 188.014 26.729 188.736 26.447 C189.452 26.173 190.149 26.221 190.816 26.594 C191.483 26.968 192.432 27.745 193.674 28.927 C193.999 28.761 194.255 28.773 194.445 28.963 C194.635 29.152 194.402 29.727 193.748 30.688 C193.748 30.688 185.058 42.988 185.058 42.988 C186.508 44.438 188.05 44.965 189.678 44.549 C191.3 44.138 193.045 43.007 194.898 41.152 C196.33 39.72 197.45 38.381 198.264 37.126 C199.084 35.865 199.732 34.69 200.228 33.583 C200.718 32.481 200.999 31.894 201.06 31.833 C201.232 31.661 201.433 31.704 201.678 31.949 C201.923 32.193 202.009 32.401 201.941 32.567 C201.024 34.709 199.769 36.906 198.153 39.145 C196.55 41.385 195.008 43.245 193.533 44.719 C191.514 46.739 189.801 47.987 188.387 48.47 C186.967 48.948 185.572 48.508 184.208 47.143 Z M184.214 41.997 C184.214 41.997 190.302 33.558 190.302 33.558 C190.982 32.622 191.331 31.992 191.361 31.679 C191.386 31.362 191.153 30.958 190.664 30.468 C188.993 28.798 187.292 28.834 185.554 30.572 C184.477 31.698 183.688 32.976 183.186 34.409 C182.696 35.841 182.531 37.23 182.709 38.582 C182.886 39.923 183.394 41.066 184.214 41.997 Z M173.713 62.044 C173.603 61.933 172.985 61.169 171.853 59.743 C170.721 58.317 169.626 57.075 168.567 56.016 C167.612 55.061 166.658 54.18 165.697 53.379 C164.742 52.571 164.216 52.118 164.118 52.02 C163.732 51.635 163.77 51.207 164.234 50.741 C164.546 50.429 165.042 50.166 165.721 49.952 C166.395 49.744 166.909 49.804 167.251 50.147 C167.587 50.484 167.985 50.955 168.457 51.55 C168.921 52.148 169.577 53.011 170.409 54.137 C171.253 55.263 172.122 56.414 173.009 57.594 C173.009 57.594 173.17 57.607 173.17 57.607 C172.814 56.652 172.514 55.679 172.275 54.682 C172.03 53.678 171.847 52.785 171.718 51.996 C171.602 51.207 171.473 50.306 171.363 49.291 C171.241 48.275 171.137 47.277 171.033 46.293 C170.409 45.669 169.981 44.848 169.736 43.833 C169.497 42.81 169.638 42.046 170.158 41.525 C170.28 41.403 170.44 41.427 170.629 41.617 C170.935 41.924 171.529 42.333 172.398 42.835 C173.273 43.344 174.184 43.704 175.133 43.919 C176.081 44.144 176.834 44.041 177.385 43.612 C177.752 43.391 177.997 43.344 178.125 43.471 C178.296 43.642 178.248 43.998 177.972 44.53 C177.703 45.068 177.397 45.51 177.048 45.858 C176.412 46.494 175.622 46.928 174.686 47.143 C173.756 47.363 172.918 47.308 172.171 46.977 C172.428 48.495 172.661 49.903 172.875 51.207 C173.089 52.497 173.322 53.746 173.591 54.932 C173.848 56.12 174.148 57.178 174.478 58.109 C174.808 59.039 175.2 59.798 175.653 60.386 C176.002 60.832 176.075 61.15 175.879 61.345 C175.512 61.713 175.121 61.97 174.704 62.104 C174.295 62.245 173.964 62.221 173.713 62.044 Z M151.574 79.777 C151.047 79.251 150.484 78.37 149.897 77.134 C149.303 75.891 148.906 74.417 148.71 72.703 C148.502 70.99 148.747 69.13 149.42 67.11 C150.093 65.103 151.396 63.127 153.324 61.199 C154.456 60.067 155.38 59.363 156.102 59.082 C156.818 58.806 157.516 58.855 158.183 59.228 C158.849 59.601 159.798 60.379 161.04 61.56 C161.364 61.394 161.622 61.407 161.811 61.596 C162.001 61.787 161.769 62.361 161.114 63.322 C161.114 63.322 152.424 75.622 152.424 75.622 C153.875 77.072 155.417 77.598 157.044 77.182 C158.666 76.772 160.41 75.64 162.264 73.786 C163.696 72.354 164.815 71.014 165.629 69.76 C166.45 68.499 167.098 67.324 167.594 66.217 C168.084 65.115 168.365 64.528 168.426 64.467 C168.598 64.296 168.799 64.339 169.045 64.583 C169.289 64.828 169.375 65.036 169.307 65.201 C168.389 67.343 167.135 69.54 165.52 71.779 C163.916 74.018 162.374 75.879 160.899 77.353 C158.88 79.373 157.167 80.622 155.753 81.105 C154.334 81.582 152.938 81.141 151.574 79.777 Z M151.58 74.631 C151.58 74.631 157.669 66.192 157.669 66.192 C158.348 65.256 158.696 64.626 158.727 64.314 C158.752 63.996 158.519 63.592 158.029 63.102 C156.359 61.431 154.658 61.469 152.92 63.206 C151.843 64.332 151.053 65.611 150.552 67.043 C150.062 68.474 149.897 69.864 150.074 71.217 C150.252 72.556 150.76 73.701 151.58 74.631 Z M144.475 94.573 C144.17 94.88 143.533 94.855 142.566 94.488 C141.599 94.133 139.818 93.38 137.212 92.229 C134.605 91.079 132.476 90.235 130.817 89.703 C129.153 89.164 127.88 89.029 127.005 89.293 C126.711 89.39 126.491 89.366 126.344 89.219 C126.149 89.023 126.234 88.742 126.595 88.381 C128.192 86.784 129.318 85.952 129.979 85.878 C130.169 85.872 131.588 86.459 134.232 87.646 C136.875 88.845 139.066 89.788 140.798 90.492 C142.536 91.189 143.527 91.422 143.778 91.172 C144.163 90.786 144.194 89.531 143.888 87.402 C143.576 85.278 142.97 83.045 142.064 80.719 C141.152 78.388 140.075 76.601 138.827 75.352 C138.674 75.2 138.527 75.102 138.38 75.053 C138.13 74.631 138.056 74.361 138.167 74.252 C138.448 73.969 139.194 73.969 140.394 74.251 C141.599 74.539 142.382 74.87 142.75 75.236 C143.57 76.056 144.175 77.923 144.561 80.842 C144.946 83.761 145.112 86.692 145.063 89.641 C145.014 92.591 144.818 94.23 144.475 94.573 Z M115.298 89.25 C113.034 86.985 111.168 85.266 109.706 84.097 C108.237 82.923 107.497 82.329 107.478 82.31 C107.282 82.114 107.307 81.894 107.552 81.649 C108.01 81.191 108.721 80.811 109.681 80.499 C110.642 80.187 111.296 80.169 111.633 80.431 C111.554 80.352 113.585 82.543 117.734 87.01 C121.877 91.483 125.23 94.996 127.782 97.548 C129.575 99.341 131.086 100.778 132.31 101.855 C133.54 102.927 134.165 103.477 134.183 103.496 C134.373 103.685 134.323 103.93 134.03 104.223 C133.589 104.664 133.081 105.001 132.506 105.233 C131.925 105.472 131.497 105.448 131.203 105.154 C131.203 105.154 115.298 89.25 115.298 89.25 Z M107.117 97.431 C104.853 95.167 102.986 93.448 101.524 92.279 C100.055 91.104 99.3154 90.511 99.2974 90.492 C99.1014 90.296 99.1264 90.076 99.3704 89.831 C99.8294 89.373 100.539 88.993 101.5 88.68 C102.461 88.369 103.115 88.35 103.452 88.613 C103.372 88.534 105.403 90.724 109.553 95.191 C113.695 99.665 117.049 103.177 119.6 105.729 C121.394 107.522 122.905 108.96 124.128 110.037 C125.358 111.108 125.983 111.658 126.001 111.677 C126.191 111.867 126.142 112.111 125.848 112.405 C125.408 112.845 124.899 113.182 124.324 113.415 C123.743 113.654 123.315 113.629 123.021 113.336 C123.021 113.336 107.117 97.431 107.117 97.431 Z M104.994 112.552 C105.636 111.738 106.052 110.906 106.248 110.061 C106.97 110.649 108.2 111.659 109.95 113.078 C111.7 114.511 113.389 115.734 115.023 116.756 C116.657 117.778 117.691 118.065 118.131 117.625 C118.309 117.447 118.493 117.46 118.695 117.662 C118.897 117.863 118.811 118.475 118.444 119.491 C118.083 120.501 117.758 121.156 117.471 121.443 C117.287 121.578 116.926 121.511 116.388 121.241 C115.849 120.96 115.072 120.489 114.05 119.798 C113.034 119.112 112.269 118.616 111.75 118.292 C111.872 120.63 111.449 122.949 110.47 125.237 C109.491 127.526 108.212 129.466 106.615 131.063 C103.452 134.226 100.82 134.753 98.7094 132.641 C97.4794 131.412 96.7024 129.606 96.3654 127.202 C96.0294 124.808 96.1764 122.386 96.8124 119.938 C97.4424 117.484 98.4464 115.575 99.8164 114.205 C101.145 112.877 102.87 112.326 104.994 112.552 Z M110.617 118.029 C110.507 117.735 110.079 117.209 109.326 116.456 C108.922 116.052 108.372 115.624 107.668 115.177 C106.97 114.724 106.303 114.351 105.667 114.057 C105.036 113.77 104.627 113.641 104.449 113.696 C103.36 114.039 102.515 114.369 101.91 114.681 C101.304 114.994 100.668 115.483 100.001 116.15 C99.0154 117.136 98.3364 118.402 97.9694 119.944 C97.5894 121.486 97.6144 123.077 98.0304 124.705 C98.4524 126.339 99.2784 127.777 100.514 129.012 C101.041 129.539 101.683 129.887 102.448 130.053 C103.207 130.224 103.99 130.187 104.792 129.936 C105.593 129.686 106.322 129.227 106.977 128.572 C107.711 127.838 108.396 126.846 109.026 125.617 C109.663 124.381 110.128 123.071 110.428 121.707 C110.727 120.342 110.795 119.112 110.617 118.029 Z M76.6554 146.104 C75.3584 144.806 74.3364 143.761 73.5904 142.965 C72.8434 142.17 71.3874 140.591 69.2084 138.228 C67.0364 135.86 65.3784 134.067 64.2394 132.855 C63.1014 131.644 61.9084 130.402 60.6484 129.141 C60.4524 128.945 60.4954 128.707 60.7884 128.413 C61.3084 127.893 61.9394 127.569 62.6794 127.427 C63.4204 127.287 64.0864 127.526 64.6804 128.119 C65.4574 128.896 66.8834 130.64 68.9514 133.357 C71.0204 136.062 72.6724 138.204 73.9264 139.764 C75.1814 141.325 76.6124 142.916 78.2284 144.531 C78.2284 144.531 78.2654 144.495 78.2654 144.495 C78.2774 143.54 78.4424 142.31 78.7424 140.799 C79.0484 139.281 79.5444 137.72 80.2414 136.105 C80.9334 134.496 81.8574 133.119 83.0074 131.969 C83.8954 131.081 84.8184 130.438 85.7794 130.052 C86.7344 129.662 87.6524 129.552 88.5454 129.722 C89.4324 129.887 90.2464 130.335 90.9684 131.056 C92.4004 132.488 93.1534 134.428 93.2204 136.87 C93.2814 139.305 92.8294 141.753 91.8434 144.207 C90.8584 146.661 89.6344 148.619 88.1844 150.069 C88.1844 150.069 88.1104 150.142 88.1104 150.142 C87.2604 150.993 86.3424 151.47 85.3694 151.562 C84.3964 151.666 83.2034 151.281 81.7954 150.424 C80.3884 149.567 78.6754 148.123 76.6554 146.104 Z M79.0724 145.376 C80.5354 146.839 81.9184 147.719 83.2154 148.001 C84.5064 148.289 85.6514 148.184 86.6484 147.701 C87.6394 147.212 88.6064 146.502 89.5374 145.571 C90.6134 144.495 91.2804 143.289 91.5504 141.955 C91.8134 140.627 91.7334 139.336 91.3054 138.076 C90.8774 136.815 90.2164 135.738 89.3164 134.839 C88.2454 133.767 87.1134 133.211 85.9024 133.162 C84.6904 133.113 83.6444 133.535 82.7444 134.434 C82.0834 135.095 81.4654 136.019 80.9024 137.194 C80.3394 138.369 79.8934 139.66 79.5744 141.08 C79.2504 142.494 79.0854 143.931 79.0724 145.376 Z M50.1714 156.801 C48.3174 154.946 47.2224 152.81 46.8674 150.399 C46.5184 147.982 46.6904 145.694 47.3934 143.546 C48.1034 141.392 48.9844 139.789 50.0434 138.73 C51.2974 137.475 52.6194 136.79 54.0204 136.674 C55.4164 136.564 56.6034 136.992 57.5634 137.953 C58.3654 138.755 58.7994 139.74 58.8794 140.921 C58.9524 142.095 58.9594 143.84 58.8984 146.153 C58.8244 148.466 58.9834 149.812 59.3624 150.191 C59.7604 150.59 60.4704 150.564 61.5044 150.118 C62.5324 149.665 63.7134 149.145 65.0414 148.552 C66.3694 147.958 67.6974 147.682 69.0194 147.731 C70.3474 147.787 71.6134 148.417 72.8374 149.64 C73.4864 150.29 74.0374 151.231 74.4834 152.462 C74.9304 153.692 75.1744 155.075 75.2114 156.617 C75.2544 158.153 74.9974 159.707 74.4404 161.267 C73.8904 162.834 72.9844 164.241 71.7304 165.496 C71.2224 166.004 70.5794 166.463 69.7964 166.867 C69.0124 167.27 68.2414 167.503 67.4704 167.564 C66.7064 167.619 66.0934 167.424 65.6414 166.97 C65.3224 166.652 65.3354 166.322 65.6844 165.973 C65.8314 165.826 66.3384 165.6 67.2194 165.282 C68.1074 164.958 68.9634 164.578 69.7964 164.125 C70.6344 163.678 71.4794 163.03 72.3174 162.191 C74.9124 159.596 74.3854 156.476 70.7444 152.836 C69.6244 151.716 68.4864 151.177 67.3174 151.208 C66.1494 151.25 65.0294 151.55 63.9524 152.1 C62.8694 152.658 61.7674 153.184 60.6484 153.679 C59.5274 154.176 58.7084 154.163 58.1884 153.642 C57.8084 153.263 57.6184 152.499 57.6124 151.342 C57.6124 150.191 57.6184 149.035 57.6434 147.873 C57.6614 146.704 57.5084 145.522 57.1964 144.329 C56.8724 143.136 56.2294 142.052 55.2634 141.087 C54.4064 140.229 53.4694 139.819 52.4604 139.875 C51.4564 139.924 50.6004 140.302 49.9024 141.001 C49.0704 141.833 48.5074 142.689 48.2014 143.583 C47.9074 144.476 47.9324 145.541 48.2804 146.783 C48.6294 148.038 49.3704 149.512 50.4894 151.219 C51.3524 152.548 52.4484 154.047 53.7884 155.729 C55.1224 157.406 56.8294 159.395 58.8914 161.689 C60.9654 163.984 63.3464 166.536 66.0454 169.344 C68.7434 172.154 71.8274 175.287 75.2914 178.75 C75.6094 179.068 75.7194 179.276 75.6214 179.375 C75.1264 179.87 74.6914 180.084 74.3124 180.023 C73.9394 179.956 73.5414 179.717 73.1314 179.307 C71.0204 177.196 69.0494 175.25 67.2384 173.475 C65.4144 171.701 63.3774 169.712 61.1254 167.533 C58.8734 165.355 56.7984 163.33 54.8954 161.463 C52.9984 159.603 51.4204 158.049 50.1714 156.801 Z M44.2054 186.571 C43.9484 186.313 42.9874 185.157 41.3354 183.113 C39.6834 181.069 38.3184 179.521 37.2534 178.456 C36.9604 178.163 36.9174 177.912 37.1134 177.716 C37.3514 177.477 37.9394 177.208 38.8754 176.908 C39.8174 176.614 40.3564 176.541 40.4974 176.681 C40.5214 176.707 40.8034 177.232 41.3414 178.249 C41.8794 179.276 42.4734 180.299 43.1284 181.333 C43.7834 182.367 44.4564 183.223 45.1534 183.921 C46.7754 185.543 48.1334 185.8 49.2414 184.692 C50.0804 183.853 50.6184 182.63 50.8514 181.039 C51.0834 179.448 51.0344 177.747 50.6974 175.941 C50.3674 174.142 49.8354 172.569 49.1124 171.223 C48.5864 170.281 48.3484 169.614 48.3784 169.228 C48.4214 168.844 48.8004 168.219 49.5174 167.356 C49.6334 167.472 49.7614 167.637 49.9264 167.851 C50.0864 168.06 50.2264 168.237 50.3554 168.366 C51.1934 169.204 52.4114 170.177 54.0084 171.285 C55.5994 172.398 57.0744 173.286 58.4264 173.953 C59.7664 174.62 60.5864 174.815 60.8684 174.534 C61.2594 174.142 61.5654 174.045 61.7794 174.259 C61.8964 174.375 61.8474 174.815 61.6324 175.593 C61.5354 175.924 61.4314 176.308 61.3204 176.749 C61.2114 177.189 61.1134 177.532 61.0334 177.783 C60.9474 178.028 60.8494 178.199 60.7454 178.303 C60.4954 178.554 59.7424 178.315 58.4824 177.581 C57.2214 176.847 55.6364 175.813 53.7144 174.491 C51.8054 173.17 50.8444 172.503 50.8444 172.503 C50.8444 172.503 50.7654 172.582 50.7654 172.582 C51.2544 173.928 51.5974 175.336 51.7874 176.823 C51.9824 178.303 52.0314 179.748 51.9284 181.149 C51.8244 182.551 51.5724 183.817 51.1814 184.943 C50.7894 186.069 50.2814 186.944 49.6634 187.562 C48.1764 189.049 46.3534 188.719 44.2054 186.571 Z M18.3814 197.916 C18.3814 197.916 17.7944 197.181 17.7944 197.181 C19.7104 195.218 21.5024 193.277 23.1734 191.349 C24.8434 189.434 26.3794 187.604 27.7814 185.886 C29.1764 184.172 30.0024 183.175 30.2474 182.905 C30.4674 182.685 30.7554 182.752 31.1224 183.119 C31.4164 183.413 31.6304 183.885 31.7714 184.552 C31.9184 185.212 31.7464 185.787 31.2624 186.27 C30.7424 186.791 29.7394 187.684 28.2464 188.945 C26.7594 190.212 25.2904 191.484 23.8524 192.763 C22.4084 194.036 20.5854 195.761 18.3814 197.916 Z M5.458 191.16 C5.2871 191.368 4.8398 191.949 4.0996 192.91 C3.372 193.871 2.8027 194.551 2.4101 194.941 C2.1787 195.175 1.8232 195.284 1.3584 195.272 C0.8877 195.254 0.5625 195.162 0.3847 194.985 C0 194.599 0.1045 194.103 0.6914 193.515 C1.9883 192.219 3.249 191.055 4.4609 190.028 C4.4609 190.028 3.2549 188.822 3.2549 188.822 C3.0049 188.572 2.9375 188.394 3.0351 188.296 C3.5674 187.764 4.2344 187.439 5.0234 187.323 C5.8135 187.207 6.4306 187.36 6.8525 187.782 C9.0996 185.537 11.0937 183.469 12.8434 181.571 C14.5944 179.686 16.1364 177.973 17.4644 176.437 C18.7984 174.895 19.8754 173.646 20.7014 172.674 C21.5334 171.707 22.1214 171.046 22.4574 170.71 C22.7144 170.452 22.9104 170.318 23.0384 170.311 C23.1674 170.305 23.3514 170.416 23.5714 170.636 C23.8404 170.967 24.0484 171.407 24.1834 171.945 C24.3174 172.484 24.3054 173.059 24.1644 173.665 C24.0184 174.277 23.6754 174.84 23.1494 175.366 C22.6654 175.849 22.0174 176.413 21.2034 177.067 C20.3894 177.71 19.2754 178.603 17.8744 179.735 C16.4664 180.874 14.9674 182.152 13.3704 183.566 C11.7793 184.986 9.9131 186.742 7.7715 188.846 C9.7597 191.032 12.3914 193.859 15.6654 197.328 C18.2234 199.849 20.8364 202.23 23.5034 204.469 C26.1714 206.721 27.7934 208.135 28.3744 208.717 C28.7604 209.101 28.7604 209.493 28.3624 209.891 C27.6954 210.558 26.9424 211.053 26.1164 211.366 C25.2904 211.677 24.6054 211.568 24.0664 211.029 C22.8124 209.775 21.5514 208.453 20.2734 207.064 C18.9944 205.675 17.5134 204.035 15.8304 202.132 C14.1474 200.241 12.6234 198.558 11.2715 197.084 C9.9189 195.608 8.5429 194.171 7.1474 192.775 C6.9638 192.592 6.6816 192.323 6.3027 191.968 C5.917 191.606 5.6357 191.338 5.458 191.16 Z"
       id="path14" />
  </g>
  <g
     transform="translate(309.43, 308.598)"
     style="fill:#161413; fill-rule:evenodd; stroke:none; stroke-width:8.06145; stroke-linecap:butt; stroke-linejoin:miter; stroke-dasharray:none;"
     id="g16">
    <path
       d="M71.416 140.251 C72.426 141.261 73.565 141.861 74.837 142.044 C76.11 142.239 77.37 142.08 78.624 141.561 C79.879 141.053 81.017 140.281 82.033 139.266 C83.201 138.097 84.065 136.708 84.615 135.092 C85.166 133.477 85.277 131.837 84.958 130.185 C84.64 128.532 83.844 127.064 82.571 125.791 C79.414 122.634 76.025 122.866 72.402 126.488 C70.352 128.538 69.146 130.809 68.803 133.293 C68.454 135.772 69.329 138.091 71.416 140.251 Z M67.775 132.204 C67.775 132.204 67.922 132.204 67.922 132.204 C68.197 131.329 68.564 130.436 69.036 129.512 C69.508 128.6 70.064 127.7 70.7 126.82 C71.337 125.926 72.04 125.1 72.812 124.328 C77.119 120.021 80.717 119.311 83.612 122.205 C85.277 123.869 86.231 125.95 86.482 128.441 C86.733 130.932 86.403 133.428 85.485 135.912 C84.567 138.409 83.319 140.478 81.734 142.123 C79.842 144.015 77.921 145.189 75.969 145.648 C74.011 146.113 72.248 145.563 70.682 143.996 C69.341 142.655 68.301 140.478 67.561 137.448 C66.82 134.432 66.343 131.176 66.135 127.689 C65.927 124.2 65.933 121.11 66.141 118.417 C66.355 115.719 66.674 114.153 67.12 113.705 C67.475 113.351 68.056 113.271 68.858 113.473 C69.659 113.675 70.266 113.988 70.688 114.409 C70.877 114.599 70.896 114.764 70.743 114.917 C70.652 115.009 70.517 115.107 70.339 115.187 C70.155 115.272 70.003 115.376 69.868 115.511 C69.128 116.251 68.583 118.546 68.246 122.395 C67.903 126.25 67.75 129.524 67.775 132.204 Z M61.142 150.819 C57.427 154.863 55.028 157.434 53.945 158.517 C51.516 160.947 49.717 161.571 48.548 160.402 C48.23 160.083 47.839 159.178 47.373 157.685 C47.373 157.685 42.496 141.34 42.496 141.34 C42.435 141.23 42.38 141.077 42.331 140.869 C42.282 140.661 42.331 140.478 42.496 140.312 C42.6 140.208 42.858 140.135 43.255 140.104 C43.653 140.073 44.063 140.104 44.485 140.208 C44.907 140.3 45.25 140.484 45.513 140.746 C45.758 140.991 45.947 141.28 46.082 141.597 C46.217 141.915 46.284 142.13 46.284 142.252 C46.284 142.252 48.591 155.892 48.591 155.892 C48.671 156.302 48.738 156.651 48.793 156.914 C48.842 157.183 48.903 157.404 48.965 157.574 C49.026 157.746 49.111 157.881 49.221 157.99 C49.533 158.303 50.317 157.973 51.59 157.005 C52.85 156.038 54.27 154.803 55.842 153.303 C57.415 151.804 58.743 150.537 59.826 149.503 C59.826 149.503 52.526 141.75 52.526 141.75 C52.153 141.377 52.091 141.071 52.336 140.826 C52.691 140.471 53.254 140.202 54.025 140.03 C54.796 139.86 55.334 139.933 55.647 140.245 C55.867 140.465 56.68 141.426 58.1 143.14 C59.514 144.847 60.786 146.266 61.925 147.405 C63.179 146.15 64.171 145.049 64.905 144.094 C65.645 143.133 65.994 142.674 65.958 142.711 C66.008 142.662 66.092 142.698 66.215 142.822 C66.667 143.274 66.6 143.953 66.019 144.865 C65.443 145.771 64.465 147.007 63.088 148.568 C63.088 148.568 68.533 154.014 68.533 154.014 C68.968 154.447 69.042 154.815 68.742 155.114 C68.399 155.457 67.897 155.751 67.23 155.989 C66.57 156.223 66.135 156.24 65.927 156.032 C65.26 155.365 64.422 154.466 63.412 153.334 C62.396 152.196 61.637 151.363 61.142 150.819 Z M39.865 166.087 C39.032 170.346 37.252 173.84 34.535 176.557 C32.816 178.277 30.986 179.249 29.052 179.457 C27.119 179.665 25.362 178.987 23.778 177.402 C22.406 176.03 21.574 174.17 21.275 171.826 C20.981 169.477 21.268 167.035 22.137 164.489 C23.012 161.949 24.402 159.729 26.304 157.825 C27.369 156.761 28.532 155.905 29.775 155.262 C31.023 154.613 32.314 154.338 33.648 154.447 C34.976 154.552 36.224 155.188 37.393 156.357 C38.72 157.685 39.81 159.863 40.66 162.893 C41.505 165.928 42.074 169.238 42.367 172.836 C42.661 176.447 42.661 179.641 42.374 182.425 C42.087 185.209 41.554 186.99 40.771 187.774 C40.391 188.153 39.816 188.312 39.039 188.269 C38.268 188.22 37.736 188.055 37.454 187.774 C37.313 187.633 37.289 187.461 37.386 187.253 C37.509 187.24 37.644 187.155 37.797 187.002 C38.433 186.365 39.02 184.983 39.553 182.848 C40.085 180.711 40.409 178.135 40.526 175.107 C40.642 172.077 40.452 169.061 39.969 166.043 C39.969 166.043 39.865 166.087 39.865 166.087 Z M25.203 173.981 C26.5 175.278 28.042 175.988 29.836 176.116 C31.616 176.244 33.354 175.461 35.049 173.767 C36.395 172.42 37.362 170.878 37.962 169.128 C38.568 167.384 38.727 165.683 38.464 164.036 C38.188 162.391 37.503 161.02 36.402 159.918 C34.639 158.155 32.834 157.404 30.986 157.66 C29.138 157.917 27.522 158.738 26.127 160.133 C24.873 161.387 23.948 162.85 23.362 164.527 C22.774 166.203 22.627 167.88 22.921 169.556 C23.208 171.227 23.973 172.701 25.203 173.981 Z M8.136 180.4 C7.959 181.58 7.733 183.251 7.469 185.411 C7.206 187.572 6.992 189.217 6.839 190.35 C6.68 191.476 6.515 192.351 6.343 192.975 C6.172 193.599 5.946 194.046 5.683 194.309 C5.352 194.639 4.82 194.878 4.086 195.013 C3.351 195.147 2.898 195.135 2.739 194.976 C2.691 194.927 2.813 194.609 3.106 194.021 C3.743 192.576 4.392 190.753 5.046 188.557 C5.695 186.354 6.276 184.12 6.778 181.856 C7.286 179.585 7.641 177.676 7.843 176.141 C7.849 175.731 7.873 175.51 7.91 175.474 C7.959 175.425 8.063 175.48 8.21 175.627 C8.479 175.896 8.687 176.153 8.834 176.398 C9.207 176.967 9.942 177.897 11.043 179.182 C12.145 180.467 13.429 181.911 14.892 183.508 C16.361 185.112 17.823 186.672 19.279 188.201 C20.742 189.738 22.132 191.163 23.447 192.479 C24.291 193.323 25.008 194.002 25.595 194.529 C26.188 195.049 26.635 195.422 26.935 195.649 C27.241 195.869 27.382 195.961 27.351 195.931 C27.541 196.12 27.541 196.316 27.339 196.518 C26.935 196.921 26.304 197.307 25.466 197.668 C24.622 198.035 24.052 198.066 23.747 197.76 C22.89 196.806 21.819 195.6 20.54 194.15 C19.261 192.687 17.841 191.072 16.287 189.284 C14.727 187.504 13.301 185.906 11.998 184.493 C10.707 183.08 9.415 181.715 8.136 180.4 Z M125.023 22.849 C125.023 22.849 121.865 19.692 121.865 19.692 C121.577 19.404 121.566 19.122 121.835 18.854 C122.276 18.412 122.851 17.996 123.572 17.617 C124.288 17.232 124.833 17.226 125.2 17.593 C125.2 17.593 128.211 20.604 128.211 20.604 C128.609 21.001 128.682 21.32 128.438 21.564 C128.003 21.998 127.403 22.403 126.633 22.77 C125.867 23.131 125.335 23.161 125.023 22.849 Z M80.444 23.529 C82.77 21.203 84.648 20.327 86.068 20.915 C86.068 20.915 109.779 31.043 109.779 31.043 C111.321 31.704 112.277 31.851 112.644 31.484 C112.778 31.349 112.876 31.055 112.944 30.596 C112.925 29.403 112.631 27.542 112.063 25.003 C111.499 22.47 110.765 19.777 109.847 16.938 C108.935 14.092 107.932 11.473 106.836 9.093 C105.747 6.719 104.664 4.999 103.612 3.947 C102.822 3.157 102.186 2.594 101.702 2.27 C101.213 1.94 100.809 1.719 100.485 1.603 C100.16 1.487 99.946 1.37 99.836 1.26 C99.69 1.113 99.737 0.917 99.983 0.673 C100.271 0.385 100.876 0.196 101.794 0.098 C102.724 0 103.673 0.042 104.652 0.226 C105.624 0.404 106.341 0.728 106.806 1.193 C107.424 1.811 108.17 3.402 109.033 5.966 C109.903 8.536 110.759 11.583 111.591 15.108 C112.43 18.627 113.109 22.06 113.641 25.395 C114.179 28.736 114.443 31.434 114.443 33.503 C114.448 35.161 114.259 36.183 113.892 36.55 C113.611 36.831 113.243 36.856 112.797 36.617 C112.797 36.617 86.165 25.358 86.165 25.358 C84.458 24.728 83.308 24.471 82.69 24.587 C82.2 24.612 81.815 24.691 81.521 24.814 C81.221 24.93 80.958 25.058 80.732 25.187 C80.511 25.309 80.327 25.37 80.205 25.37 C80.083 25.37 79.924 25.284 79.746 25.107 C79.452 24.814 79.686 24.287 80.444 23.529 Z M95.051 52.822 C95.051 52.822 91.893 49.663 91.893 49.663 C91.606 49.376 91.593 49.095 91.862 48.825 C92.303 48.385 92.878 47.969 93.601 47.589 C94.317 47.203 94.861 47.197 95.228 47.565 C95.228 47.565 98.239 50.575 98.239 50.575 C98.636 50.973 98.71 51.291 98.465 51.536 C98.03 51.971 97.431 52.374 96.66 52.741 C95.896 53.103 95.362 53.133 95.051 52.822 Z M72.213 71.326 C71.688 70.8 71.124 69.918 70.537 68.683 C69.944 67.441 69.545 65.965 69.349 64.252 C69.141 62.538 69.386 60.679 70.06 58.659 C70.733 56.652 72.036 54.675 73.964 52.747 C75.096 51.615 76.02 50.912 76.741 50.63 C77.458 50.356 78.155 50.404 78.822 50.778 C79.489 51.151 80.438 51.928 81.68 53.109 C82.004 52.944 82.262 52.956 82.451 53.146 C82.641 53.335 82.408 53.91 81.753 54.871 C81.753 54.871 73.065 67.171 73.065 67.171 C74.515 68.621 76.057 69.148 77.684 68.732 C79.306 68.322 81.05 67.19 82.904 65.335 C84.336 63.904 85.455 62.564 86.27 61.309 C87.089 60.048 87.738 58.873 88.234 57.766 C88.724 56.664 89.005 56.076 89.066 56.016 C89.237 55.844 89.44 55.887 89.684 56.132 C89.929 56.376 90.015 56.584 89.947 56.75 C89.029 58.892 87.775 61.088 86.159 63.328 C84.556 65.568 83.014 67.428 81.539 68.903 C79.52 70.922 77.807 72.17 76.393 72.654 C74.974 73.131 73.578 72.691 72.213 71.326 Z M72.22 66.18 C72.22 66.18 78.309 57.741 78.309 57.741 C78.987 56.805 79.336 56.174 79.367 55.863 C79.392 55.544 79.159 55.141 78.669 54.651 C76.999 52.981 75.298 53.017 73.56 54.755 C72.483 55.881 71.694 57.159 71.192 58.592 C70.702 60.024 70.537 61.412 70.714 62.765 C70.892 64.106 71.4 65.249 72.22 66.18 Z M44.463 98.502 C44.205 98.244 43.245 97.088 41.592 95.044 C39.94 93 38.576 91.452 37.511 90.387 C37.217 90.094 37.174 89.843 37.37 89.647 C37.609 89.408 38.196 89.139 39.133 88.839 C40.075 88.545 40.613 88.472 40.755 88.613 C40.779 88.637 41.06 89.163 41.598 90.18 C42.137 91.207 42.731 92.229 43.385 93.264 C44.04 94.298 44.713 95.155 45.411 95.852 C47.032 97.474 48.391 97.731 49.499 96.623 C50.337 95.784 50.876 94.561 51.108 92.97 C51.341 91.379 51.292 89.677 50.955 87.872 C50.625 86.073 50.092 84.5 49.37 83.155 C48.844 82.212 48.605 81.545 48.636 81.159 C48.678 80.774 49.058 80.15 49.774 79.287 C49.89 79.404 50.019 79.569 50.184 79.782 C50.343 79.99 50.484 80.168 50.612 80.297 C51.451 81.135 52.668 82.108 54.266 83.216 C55.857 84.329 57.331 85.217 58.684 85.884 C60.024 86.551 60.844 86.746 61.125 86.465 C61.517 86.073 61.823 85.976 62.037 86.19 C62.153 86.306 62.104 86.746 61.89 87.524 C61.792 87.854 61.688 88.239 61.578 88.68 C61.468 89.12 61.37 89.463 61.291 89.714 C61.205 89.959 61.107 90.13 61.003 90.235 C60.752 90.486 59.999 90.246 58.739 89.512 C57.478 88.778 55.893 87.744 53.972 86.422 C52.063 85.101 51.102 84.434 51.102 84.434 C51.102 84.434 51.022 84.513 51.022 84.513 C51.512 85.86 51.855 87.267 52.044 88.753 C52.24 90.235 52.289 91.678 52.185 93.08 C52.081 94.482 51.83 95.748 51.439 96.874 C51.047 97.999 50.539 98.875 49.921 99.493 C48.434 100.98 46.61 100.65 44.463 98.502 Z M29.733 100 C30.376 99.187 30.792 98.355 30.988 97.51 C31.71 98.098 32.94 99.108 34.69 100.527 C36.44 101.959 38.129 103.183 39.763 104.204 C41.397 105.227 42.431 105.514 42.871 105.073 C43.049 104.896 43.233 104.908 43.435 105.111 C43.636 105.312 43.551 105.924 43.184 106.94 C42.822 107.949 42.498 108.605 42.211 108.892 C42.027 109.027 41.666 108.959 41.128 108.69 C40.589 108.408 39.812 107.938 38.79 107.246 C37.774 106.561 37.009 106.065 36.489 105.74 C36.612 108.078 36.189 110.398 35.21 112.686 C34.231 114.975 32.952 116.914 31.355 118.512 C28.191 121.675 25.56 122.201 23.449 120.09 C22.219 118.861 21.442 117.055 21.105 114.651 C20.769 112.258 20.916 109.834 21.552 107.387 C22.182 104.933 23.186 103.024 24.556 101.653 C25.884 100.325 27.61 99.775 29.733 100 Z M35.357 105.478 C35.247 105.184 34.819 104.657 34.066 103.905 C33.662 103.501 33.112 103.072 32.407 102.626 C31.71 102.173 31.043 101.8 30.406 101.506 C29.777 101.218 29.366 101.09 29.189 101.145 C28.1 101.488 27.255 101.819 26.649 102.13 C26.044 102.443 25.407 102.932 24.74 103.599 C23.755 104.584 23.075 105.851 22.709 107.393 C22.329 108.935 22.354 110.526 22.77 112.154 C23.192 113.787 24.018 115.226 25.254 116.461 C25.78 116.988 26.423 117.337 27.188 117.502 C27.946 117.673 28.73 117.636 29.531 117.386 C30.333 117.135 31.061 116.676 31.716 116.021 C32.45 115.286 33.136 114.295 33.766 113.066 C34.403 111.829 34.867 110.52 35.167 109.155 C35.467 107.79 35.534 106.561 35.357 105.478 Z M10.243 120.519 C10.629 118.322 10.984 117.062 11.314 116.731 C11.418 116.627 11.638 116.749 11.975 117.086 C13.542 118.763 15.904 121.173 19.061 124.331 C20.805 126.149 22.25 128.021 23.394 129.936 C24.538 131.863 25.297 133.81 25.67 135.786 C26.037 137.769 25.921 139.721 25.321 141.643 C24.728 143.57 23.559 145.4 21.821 147.138 C20.714 148.245 19.484 149.022 18.132 149.469 C16.773 149.909 15.53 150.074 14.399 149.958 C13.273 149.836 12.489 149.555 12.043 149.108 C11.712 148.778 11.43 148.08 11.204 147.009 C10.978 145.938 11.002 145.24 11.272 144.898 C11.37 144.8 11.473 144.794 11.565 144.886 C13.211 146.531 15.047 147.241 17.06 147.015 C19.08 146.782 20.97 145.785 22.739 144.017 C24.232 142.524 24.911 140.853 24.771 139.011 C24.63 137.169 23.994 135.37 22.862 133.613 C21.736 131.863 20.377 130.199 18.811 128.633 C18.266 128.088 17.709 127.556 17.134 127.042 C16.558 126.516 16.197 126.179 16.051 126.032 C15.996 128.425 15.457 130.823 14.441 133.222 C13.425 135.633 12.122 137.707 10.543 139.458 C9.24 140.761 7.894 141.495 6.499 141.667 C5.103 141.838 3.794 141.312 2.57 140.088 C1.432 138.95 0.691 137.291 0.348 135.113 C0 132.929 0.061 130.763 0.532 128.59 C0.997 126.424 1.768 124.809 2.827 123.75 C4.791 121.785 7.263 120.708 10.243 120.519 Z M14.692 124.821 C14.6 124.521 14.288 124.111 13.774 123.597 C13.309 123.132 12.722 122.655 12 122.164 C11.29 121.675 10.776 121.443 10.464 121.474 C9.778 121.448 8.762 121.864 7.428 122.697 C6.089 123.535 4.957 124.41 4.045 125.322 C2.778 126.589 1.872 128.266 1.328 130.353 C0.783 132.44 1.334 134.299 2.974 135.94 C4.486 137.45 5.985 138.008 7.471 137.61 C8.952 137.218 10.225 136.484 11.284 135.425 C12.459 134.25 13.444 132.616 14.227 130.524 C15.023 128.431 15.175 126.528 14.692 124.821 Z"
       id="path18" />
  </g>
  <g
     transform="translate(137.336, 155.909)"
     style="fill:#e20010; fill-rule:evenodd; stroke:none; stroke-width:8.06145; stroke-linecap:butt; stroke-linejoin:miter; stroke-dasharray:none;"
     id="g20">
    <path
       d="M96.3521 196.747 C86.9501 196.747 79.3331 204.363 79.3331 213.764 C79.3331 223.203 86.9501 230.819 96.3521 230.819 C105.79 230.819 113.406 223.203 113.406 213.764 C113.406 204.363 105.79 196.747 96.3521 196.747 Z M101.563 123.062 C101.563 123.062 0 225.353 0 225.353 C0 225.353 23.7608 225.754 23.7608 225.754 C23.7608 225.754 126.489 123.208 126.489 123.208 C126.489 123.208 101.563 123.062 101.563 123.062 Z M90.7401 122.261 C90.7401 122.261 63.6641 122.261 63.6641 122.261 C63.6641 122.261 29.2266 157.353 29.2266 157.353 C29.2266 157.353 29.2266 169.197 29.2266 169.197 C29.2266 169.197 43.9854 169.197 43.9854 169.197 C43.9854 169.197 90.7401 122.261 90.7401 122.261 Z M149.411 39.6113 C149.411 39.6113 28.2422 39.7568 28.2422 39.7568 C28.2422 39.7568 28.1329 60.3467 28.1329 60.3467 C28.1329 60.3467 126.635 60.3467 126.635 60.3467 C126.635 60.3467 81.7021 105.862 81.7021 105.862 C81.7021 105.862 143.033 105.862 143.033 105.862 C143.033 105.862 188.585 59.4355 188.585 59.4355 C188.585 59.4355 212.053 84.7988 212.053 84.7988 C212.053 84.7988 273.931 84.7608 273.931 84.7608 C273.931 84.7608 273.676 64.1006 273.676 64.1006 C273.676 64.1006 223.277 64.1006 223.277 64.1006 C223.277 64.1006 207.389 39.7568 207.389 39.7568 C207.389 39.7568 149.411 39.6113 149.411 39.6113 Z M181.078 0 C171.676 0 164.06 7.6152 164.06 17.0176 C164.06 26.456 171.676 34.0722 181.078 34.0722 C190.517 34.0722 198.133 26.456 198.133 17.0176 C198.133 7.6152 190.517 0 181.078 0 Z"
       id="path22" />
  </g>
</svg>
