<?xml version="1.0" encoding="utf-8"?>
<!-- Generator: Adobe Illustrator 19.2.1, SVG Export Plug-In . SVG Version: 6.00 Build 0)  -->
<svg version="1.1" id="Ebene_1" xmlns="http://www.w3.org/2000/svg" xmlns:xlink="http://www.w3.org/1999/xlink" x="0px" y="0px"
	 viewBox="0 0 226.5 35.9" style="enable-background:new 0 0 226.5 35.9;" xml:space="preserve">
<style type="text/css">
	.st0{fill-rule:evenodd;clip-rule:evenodd;fill:#C60C6F;}
	.st1{fill-rule:evenodd;clip-rule:evenodd;fill:#1D1D1B;}
	.st2{fill-rule:evenodd;clip-rule:evenodd;fill:#C6135D;}
	.st3{fill:#1D1D1B;}
	.st4{fill-rule:evenodd;clip-rule:evenodd;fill:#BCBCBB;}
</style>
<g>
	<path class="st0" d="M52.9,35.7h0.9l0.7-3.1l2.4,3.1h1.2l-2.6-3.3l3.5-3.2h-1.2l-3.1,2.9l0,0l0.6-2.9h-0.9L52.9,35.7L52.9,35.7z
		 M66.9,29.2h-0.9l-0.7,3.3c-0.2,1.1-0.6,2.5-2,2.5c-0.8,0-1.4-0.4-1.4-1.3c0-0.1,0-0.3,0.1-0.6l0.8-3.9h-0.9l-0.7,3.2
		c-0.1,0.4-0.2,1-0.2,1.5c0,0.7,0.5,2,2.3,2c1.5,0,2.4-0.8,2.9-2.8L66.9,29.2L66.9,29.2z M68.5,35.7h0.9l1.1-5.4h0l1.8,5.4h1.2
		l1.4-6.5h-0.9l-1.2,5.5h0l-1.8-5.5h-1.2L68.5,35.7L68.5,35.7z M81,29.4c-0.5-0.2-1-0.3-1.6-0.3c-1.1,0-2.2,0.7-2.2,1.9
		c0,1.8,2.2,1.6,2.2,2.9c0,0.5-0.4,1.2-1.4,1.2c-0.5,0-1-0.2-1.4-0.4l-0.3,0.9c0.5,0.2,1.1,0.4,1.8,0.4c1.6,0,2.3-1.1,2.3-2.1
		c0-1.7-2.2-1.7-2.2-2.8c0-0.8,0.7-1,1.3-1c0.5,0,0.9,0.1,1.2,0.3L81,29.4L81,29.4z M88.3,29.2h-5L83.1,30h2l-1.2,5.7h0.9l1.2-5.7h2
		L88.3,29.2L88.3,29.2z M93.6,29.4c-0.5-0.2-1-0.3-1.6-0.3c-1.1,0-2.2,0.7-2.2,1.9c0,1.8,2.2,1.6,2.2,2.9c0,0.5-0.4,1.2-1.4,1.2
		c-0.5,0-1-0.2-1.4-0.4L89,35.5c0.5,0.2,1.1,0.4,1.8,0.4c1.6,0,2.3-1.1,2.3-2.1c0-1.7-2.2-1.7-2.2-2.8c0-0.8,0.7-1,1.3-1
		c0.5,0,0.9,0.1,1.2,0.3L93.6,29.4L93.6,29.4z M100.9,29.2h-5L95.7,30h2l-1.2,5.7h0.9l1.2-5.7h2L100.9,29.2L100.9,29.2z M102.1,33.1
		c0,1.8,0.9,2.8,2.7,2.8c2.4,0,3.6-2,3.6-4.1c0-1.7-1-2.6-2.6-2.6C103.4,29.1,102.1,31.2,102.1,33.1L102.1,33.1z M103.1,33.1
		c0-1.7,1.1-3.2,2.7-3.2c1.1,0,1.7,0.7,1.7,2c0,1.4-1,3.1-2.6,3.1C103.7,35,103.1,34.3,103.1,33.1L103.1,33.1z M110.4,35.7h1l0.6-3
		h2.3l0.2-0.8h-2.3l0.4-1.9h2.5l0.2-0.8h-3.4L110.4,35.7L110.4,35.7z M116.4,35.7h1l0.6-3h2.3l0.2-0.8h-2.3l0.4-1.9h2.5l0.2-0.8
		h-3.4L116.4,35.7L116.4,35.7z M128.7,32.9c0,0.3,0.2,0.6,0.6,0.6c0.3,0,0.6-0.2,0.6-0.6s-0.2-0.6-0.6-0.6
		C128.9,32.4,128.7,32.6,128.7,32.9L128.7,32.9z M137.7,35.7h0.9l1.4-6.5h-0.9L137.7,35.7L137.7,35.7z"/>
	<path class="st0" d="M141.7,35.7h0.9l1.1-5.4h0l1.8,5.4h1.2l1.4-6.5h-0.9l-1.2,5.5h0l-1.8-5.5h-1.2L141.7,35.7L141.7,35.7z
		 M149.9,35.7h0.9l1.1-5.4h0l1.8,5.4h1.2l1.4-6.5h-0.9l-1.2,5.5h0l-1.8-5.5h-1.2L149.9,35.7L149.9,35.7z M158.3,33.1
		c0,1.8,0.9,2.8,2.7,2.8c2.4,0,3.6-2,3.6-4.1c0-1.7-1-2.6-2.6-2.6C159.6,29.1,158.3,31.2,158.3,33.1L158.3,33.1z M159.3,33.1
		c0-1.7,1.1-3.2,2.7-3.2c1.1,0,1.7,0.7,1.7,2c0,1.4-1,3.1-2.6,3.1C159.9,35,159.3,34.3,159.3,33.1L159.3,33.1z M173.3,29.2h-1
		l-3.3,5.6h0l-0.8-5.6h-0.9l1.1,6.5h1.1L173.3,29.2L173.3,29.2z M186.9,29.2h-5l-0.2,0.8h2l-1.2,5.7h0.9l1.2-5.7h2L186.9,29.2
		L186.9,29.2z M187.8,35.7h0.9l1.4-6.5h-0.9L187.8,35.7L187.8,35.7z M192.1,33.1c0,1.8,0.9,2.8,2.7,2.8c2.4,0,3.6-2,3.6-4.1
		c0-1.7-1-2.6-2.6-2.6C193.4,29.1,192.1,31.2,192.1,33.1L192.1,33.1z M193.1,33.1c0-1.7,1.1-3.2,2.7-3.2c1.1,0,1.7,0.7,1.7,2
		c0,1.4-1,3.1-2.6,3.1C193.7,35,193.1,34.3,193.1,33.1L193.1,33.1z M200.4,35.7h0.9l1.1-5.4h0l1.8,5.4h1.2l1.4-6.5H206l-1.2,5.5h0
		l-1.8-5.5h-1.2L200.4,35.7L200.4,35.7z M215.1,35.7h0.9l1.1-5.4h0l1.8,5.4h1.2l1.4-6.5h-0.9l-1.2,5.5h0l-1.8-5.5h-1.2L215.1,35.7
		L215.1,35.7z"/>
	<path class="st1" d="M54.4,22.7h2.5l1.7-8.3l6.4,8.3h3.1l-6.9-8.8l9.4-8.6h-3.3L59,13l0,0l1.7-7.6h-2.5L54.4,22.7L54.4,22.7z
		 M69.8,15.6c0,4.8,2.5,7.4,7.3,7.4c6.3,0,9.5-5.4,9.5-10.9c0-4.4-2.6-7-7-7C73.2,5,69.8,10.7,69.8,15.6L69.8,15.6z M72.4,15.7
		c0-4.4,2.8-8.5,7.1-8.5c3,0,4.5,1.9,4.5,5.2c0,3.8-2.5,8.4-6.8,8.4C74,20.8,72.4,18.8,72.4,15.7L72.4,15.7z M88.3,22.7h2.4l3-14.4
		h0l4.9,14.4h3.2l3.8-17.4h-2.4l-3.1,14.5h0L95.2,5.3h-3.3L88.3,22.7L88.3,22.7z M104.9,22.7h12l0.4-2.2h-9l11.4-13l0.4-2.2h-11.6
		l-0.4,2.2h8.5l-11.4,13L104.9,22.7L104.9,22.7z"/>
	<path class="st1" d="M191.3,22.7h2.4l3-14.4h0l4.9,14.4h3.2l3.8-17.4h-2.4l-3.1,14.5h0l-4.9-14.5h-3.3L191.3,22.7L191.3,22.7z
		 M209.2,22.7h2.4l3-14.4h0l4.9,14.4h3.2l3.8-17.4h-2.4l-3.1,14.5h0l-4.9-14.5h-3.3L209.2,22.7L209.2,22.7z"/>
	<path class="st1" d="M137,22.7h9.7l0.4-2.2H140l3.3-15.2h-2.5L137,22.7L137,22.7z M149.5,22.7h2.4l3.3-14.9h0l2.4,14.9h2.4
		l8.9-14.9h0l-3.2,14.9h2.5l3.7-17.4h-4.1l-8.5,14.2l-2.4-14.2h-3.7L149.5,22.7L149.5,22.7z"/>
	<path class="st2" d="M179.5,32.4c0.1-0.5,0.2-1,0.2-1.2c0-1.4-0.9-2.1-2.6-2.1c-0.9,0-1.8,0.2-2.4,0.4l-0.1,0.8
		c0.5-0.2,1.4-0.6,2.4-0.6c1.1,0,1.7,0.5,1.7,1.4c0,0.3,0,0.5,0,0.6c-0.3,0-0.7-0.1-1.1-0.1c-1.9,0-4.6,0.4-4.6,2.3
		c0,1.1,1,1.8,2.3,1.8c1.2,0,2-0.3,2.7-1.1h0c-0.1,0.3-0.1,0.6-0.2,1h1c0-0.4,0.1-1,0.3-1.5L179.5,32.4L179.5,32.4z M174,34
		c0-1.4,2.1-1.6,3.5-1.6c0.3,0,0.6,0,1,0c-0.2,1.4-1.1,2.7-2.9,2.7C174.8,35.2,174,34.8,174,34L174,34z"/>
	<path class="st1" d="M189.8,13.9c0.4-1.4,0.5-2.6,0.5-3.3c0-3.6-2.4-5.6-7-5.6c-2.5,0-4.9,0.6-6.4,1.2l-0.3,2.2
		c1.4-0.6,3.8-1.5,6.3-1.5c2.9,0,4.5,1.4,4.5,3.7c0,0.7,0,1.2-0.1,1.7c-0.8-0.1-1.8-0.1-2.9-0.1c-5.2,0-12.1,1.1-12.1,6.1
		c0,2.8,2.8,4.9,6,4.9c3.1,0,5.4-0.8,7.2-3h0.1c-0.2,0.7-0.3,1.6-0.4,2.5h2.6c0.1-1.2,0.4-2.8,0.8-4.1L189.8,13.9L189.8,13.9z
		 M175.2,18.2c0-3.8,5.7-4.2,9.2-4.2c0.9,0,1.7,0.1,2.6,0.1c-0.6,3.6-2.8,7.2-7.7,7.2C177.2,21.2,175.2,20.2,175.2,18.2L175.2,18.2z
		"/>
	<path class="st2" d="M214.1,32.7c0-0.4,0.1-0.8,0.1-1.2c0-1.5-0.9-2.4-2.6-2.4c-2.4,0-3.8,2-3.8,4.2c0,1.8,1.3,2.7,3,2.7
		c1.2,0,1.8-0.2,2.2-0.3l0.1-0.8c-0.6,0.2-1.2,0.4-2.2,0.4c-1.3,0-2.2-0.7-2.2-2c0-0.2,0-0.4,0-0.5H214.1L214.1,32.7z M208.9,32
		c0.2-1.2,1.3-2.3,2.7-2.3c1.2,0,1.7,0.7,1.7,1.8c0,0.2,0,0.3,0,0.5H208.9L208.9,32z"/>
	<path class="st1" d="M136.6,14.6c0.1-1.1,0.3-2.2,0.3-3.2c0-3.9-2.3-6.4-6.9-6.4c-6.3,0-10.1,5.3-10.1,11c0,4.6,3.5,7.1,8.1,7.1
		c3.2,0,4.7-0.5,5.8-0.9l0.2-2.1c-1.5,0.6-3.3,1.2-5.7,1.2c-3.4,0-5.9-1.9-5.9-5.2c0-0.5,0-0.9,0.1-1.4H136.6L136.6,14.6z
		 M122.8,12.8c0.7-3.2,3.4-6,7.2-6c3.1,0,4.5,1.9,4.5,4.7c0,0.4-0.1,0.8-0.1,1.3H122.8L122.8,12.8z"/>
	<path class="st3" d="M1.6,33.5h26.6c1.2,0,2.6,0,3.8-0.8c0.3-0.2,0.5-0.5,0.7-0.7c0.4-0.6,0.5-1.3,0.3-1.9l-5.1-11.3
		c-0.1-0.2-0.1-0.4,0-0.7c0.1-0.3,0.2-0.5,0.3-0.7L38.4,5.9C38.9,5.4,39.2,4.7,39,4c-0.2-0.8-1-1.2-1.8-1.4
		c-0.5-0.1-1.2-0.2-1.9-0.1c0,0,0,0,0,0H8.6c0,0-0.3,0-0.6-0.2C7.8,2.2,7.5,1.9,7.7,1.2c0.1-0.6,0.5-0.9,0.9-1.1C8.9,0,9.2,0,9.2,0
		h26.6c2.5-0.1,4,0.5,4.9,1.4c0.4,0.5,0.7,1,0.8,1.6c0.1,0.6,0.1,1.2,0,1.7c-0.2,1-0.7,2-1.4,2.6L30.5,18l4.7,10.6
		c0.4,0.6,0.5,1.6,0.2,2.6c-0.3,1.3-1.2,2.5-2.3,3.3c-1.3,0.9-3.1,1.5-5.6,1.4H1c0,0-0.3,0-0.6-0.2c-0.3-0.2-0.5-0.5-0.3-1.1
		c0.1-0.6,0.5-0.9,0.8-1.1C1.2,33.5,1.5,33.5,1.6,33.5L1.6,33.5z"/>
	<polygon class="st4" points="6.9,5.6 16.2,5.6 10.3,31.1 1.1,31.1 6.9,5.6 	"/>
	<polygon class="st0" points="23.1,5.5 33.1,5.5 22,18.2 27.3,30.9 17.3,30.9 12,18.2 23.1,5.5 	"/>
</g>
</svg>
