<?xml version="1.0" encoding="utf-8"?>
<!-- Generator: Adobe Illustrator 24.3.0, SVG Export Plug-In . SVG Version: 6.00 Build 0)  -->
<svg version="1.1" id="Ebene_1" xmlns="http://www.w3.org/2000/svg" xmlns:xlink="http://www.w3.org/1999/xlink" x="0px" y="0px"
	 viewBox="0 0 476.4 289.5" style="enable-background:new 0 0 476.4 289.5;" xml:space="preserve">
<style type="text/css">
	.st0{fill:#1D327B;}
</style>
<path class="st0" d="M374.8,288.5V264c0-8.4-4.5-11.9-11.5-11.9c-7.4,0-11.3,5.3-11.3,5.3h-0.1v-4.3h-8.8v35.5h9.2v-21.8
	c0-3.4,3.4-6.5,7.3-6.5c5,0,6,3.2,6,6.7v21.7L374.8,288.5L374.8,288.5z M325.3,267.1H312c0-4.3,2.1-8.7,7.2-8.7
	C324.5,258.4,325.3,262.9,325.3,267.1 M333.9,269.1c0-11.6-4.5-17-14.3-17c-12.1,0-16.5,7.7-16.5,18.9c0,11.3,3.4,18.6,16.7,18.6
	c5.2,0,9.6-1.1,12.3-2.7l-0.4-7.2c-3.1,1.5-6.9,2.6-10.9,2.6c-6.5,0-8.6-4.1-8.6-8.2v-0.8h21.6C333.7,273.2,333.9,269.9,333.9,269.1
	 M286.4,272.9c0,5.1-2.1,9.1-7,9.1c-3.7,0-6.9-3.5-6.9-8.6v-5.8c0-4.3,2.8-8.2,7.1-8.2c4,0,6.8,3.3,6.8,8.9L286.4,272.9L286.4,272.9
	z M295.7,270.7c0-11.1-3.1-18.7-13-18.7c-5.5,0-8.2,2.2-10.2,4.6h-0.1v-18.2h-9.2v50h8.2l0.4-4.4h0.1c1.5,2.7,4.4,5.4,10,5.4
	C292,289.5,295.7,281.4,295.7,270.7 M245.2,267.1h-13.3c0-4.3,2.1-8.7,7.2-8.7C244.4,258.4,245.2,262.9,245.2,267.1 M253.7,269.1
	c0-11.6-4.5-17-14.3-17c-12.1,0-16.5,7.7-16.5,18.9c0,11.3,3.4,18.6,16.7,18.6c5.2,0,9.6-1.1,12.3-2.7l-0.4-7.2
	c-3.1,1.5-6.9,2.6-10.9,2.6c-6.5,0-8.6-4.1-8.6-8.2v-0.8h21.6C253.6,273.2,253.7,269.9,253.7,269.1 M213.6,238.5h-9.2v50h9.2V238.5z
	 M177.2,288l-0.4-6.7c0,0-2.5,0.9-4.5,0.9c-2.7,0-3.9-1.3-3.9-4.4l0.1-17.4h8.8v-7.4h-8.8l0.1-9.9l-9.1,1.1l-0.1,8.9h-7.6v7.4h7.6
	l-0.1,18.9c0,6.7,2.9,10.1,9.7,10.1C173.5,289.5,177.2,288,177.2,288 M146.7,278.2c0-6.5-3.9-9.1-8.7-10.9l-2.4-0.9
	c-3.7-1.3-5.2-2.4-5.2-4.5c0-1.9,1.4-3.2,5-3.2c2.1,0,5.7,0.9,9.1,2.6l0.4-7.2c-2.3-1.2-6.2-2.3-10.1-2.3c-8.5,0-13.8,3.6-13.8,10.4
	c0,6.5,4,9.4,9.9,11.3l0.9,0.3c4.2,1.4,5.7,2.5,5.7,4.8c0,2-1.3,3.9-6,3.9c-3.5,0-7-1.1-10.1-2.9l-0.4,7.2c3.6,1.6,7.3,2.5,11.4,2.5
	C141.8,289.5,146.7,285.3,146.7,278.2 M112.3,243.3c0-3.1-2.6-5.7-5.7-5.7c-3.2,0-5.7,2.6-5.7,5.7c0,3.2,2.6,5.7,5.7,5.7
	C109.8,249.1,112.3,246.5,112.3,243.3 M111.3,253.1H102v35.5h9.2V253.1z"/>
<path class="st0" d="M136.6,0h35.2c0,0,0.1,117.9,0.1,135c0,17.1,0.9,36.2,1.9,42.2h-37.2c0,0,2-9.6,2-42.7c0-33.1,0.1-59,0.1-82.9
	C138.7,27.9,137.6,7.6,136.6,0"/>
<path class="st0" d="M417.8,112.6v37.8c0,0-5.2,6-15,6c-6.9,0-14.7-5.5-14.7-17.2C388,130.5,394.6,115.9,417.8,112.6 M357.4,160.6
	c39.7,0.4,67.8,6.5,86.7,12.2c4.9,1.5,9,2.9,12.7,4.3c-3-8.4-5.8-27-5.8-36.6c0-9.5-0.1-34.9-0.1-44.4c0-10.4-3.4-28.4-21.5-39.2
	c-15.6-9.2-39.6-9.2-48.4-8.6c-6.7,0.5-15.7,1.9-15.7,1.9l0.1,31.1c0,0,16.5-10.9,30.2-10.9c17.5,0,20.4,19.1,20.4,19.1
	c-13.6,3.5-31.5,7.7-47.5,21.1C354.6,122.6,349.3,143.5,357.4,160.6"/>
<path class="st0" d="M250.5,169.2l16.6-58.3l15.3,54c10.3-1.2,21.1-2.4,33.8-3.2c24.9-73.4,28.9-109.8,28.9-109.8h-29.3
	c-2,31.2-14,76.7-14,76.7c-5.2-15-17.4-76.7-17.4-76.7h-27.7c0,12.1-17.3,76.8-17.3,76.8c-7.9-30-14.9-76.8-14.9-76.8h-35.6
	c11.6,61.5,29.1,109.9,33.7,122.2C233.2,172.3,242.3,170.6,250.5,169.2"/>
<path class="st0" d="M77,112.6v37.8c0,0-5.2,6-15,6c-6.9,0-14.7-5.5-14.7-17.2C47.3,130.5,53.9,115.9,77,112.6 M20.3,166.9
	c0.3,0.4,0.6,0.7,0.9,1c10.7,3,25.4,6.3,44.3,8.9c8.6-3.5,13.7-8.3,13.7-8.3c2.1,4.7,4.4,8.7,4.4,8.7h32.6c-3-8.4-5.8-27-5.8-36.6
	c0-9.5-0.1-34.9-0.1-44.4c0-10.4-3.4-28.4-21.5-39.2c-15.6-9.2-39.6-9.2-48.4-8.6c-6.7,0.5-15.7,1.9-15.7,1.9l0.1,31.1
	c0,0,16.5-10.9,30.2-10.9c17.5,0,20.4,19.1,20.4,19.1c-13.6,3.5-31.5,7.7-47.5,21.1C12.1,124.1,7.3,148.9,20.3,166.9"/>
<path class="st0" d="M362,190.9c33.1,0,64,2.8,81.3,5.5c26.9,4.1,33.1,5,33.1,5s-9.7-6.6-32.3-13.4c-19.6-5.9-48.8-12.3-90.6-12.3
	c-42.5,0-66.2,3.8-92.2,7c-26,3.2-61.4,13.7-127.1,13.7C44.3,196.4,0,175.9,0,175.9s44.6,36.2,134.6,36.2c66,0,95.6-8.2,127.3-12.4
	C300.3,194.5,319.9,190.9,362,190.9"/>
</svg>
