<?xml version="1.0" encoding="UTF-8"?><svg id="v1" xmlns="http://www.w3.org/2000/svg" viewBox="0 0 173.5 73.32"><defs><style>.cls-1{fill:#bf1528;}</style></defs><g><path class="cls-1" d="M145.35,20.92c0-5.8-2.71-12.53-9.75-12.53-6.38,0-9.74,5.68-9.74,12.53,0,7.69,4.14,12.53,9.74,12.53,7.04,0,9.75-6.66,9.75-12.53m9.41,0c0,12.15-7.82,20.87-19.31,20.87-10.87,0-18.95-8-18.95-20.87,0-13.81,9.59-20.92,19.31-20.92s18.94,6.74,18.94,20.92"/><path class="cls-1" d="M113.06,37.99c-2.3,1.6-7.14,3.76-13.75,3.76-12.97,0-19.38-9.27-19.38-20.59,0-12.75,8.71-21.16,20.09-21.16,5.64,0,9.26,.97,12.47,2.6l-3.29,7.85c-2.45-1.06-5.27-1.68-8.61-1.68-8.23,0-11.02,5.1-11.02,12.13,0,7.6,3.75,12.52,10.28,12.52,2.36,0,4.14-.52,4.69-.89v-7.07h-6.63v-8h15.15v20.52h0Z"/><path class="cls-1" d="M68,13.8c0-1.69-.59-3.05-1.76-3.97-1.17-.96-2.78-1.42-4.74-1.46-.22,0-1.06,0-1.56,.02s-1.83,.14-2.24,.22v11.53c.6,.07,1.86,.13,2.88,.13,2.17,0,4.18-.62,5.46-1.64,1.28-1.07,1.97-2.78,1.97-4.84m.74,27.29c-1.29-4.87-3.45-8.57-5.22-10.93-1.5-2-2.67-2.42-2.67-2.42-1.21,.03-2.05,.03-3.16-.02v13.38h-9.06V1.07c1.91-.32,3.27-.49,5.27-.68,1.84-.18,3.93-.29,6.23-.29,3.05,0,5.65,.35,7.78,1.05s3.87,1.65,5.22,2.87c1.38,1.21,2.38,2.72,2.98,4.38,.64,1.62,.96,3.34,.96,5.18,0,2.43-.57,4.78-1.82,6.79-1.11,1.79-2.97,3.61-4.89,4.87v.18c4.3,2.04,6.74,8.6,9.1,15.68h-10.73v-.02Z"/><path class="cls-1" d="M16.82,31.51V.66h26.59V9.27H25.87v6.92h14.85v8.16h-14.85v4.32c0,2.72,1.54,3.87,3.55,3.87h14.71v8.55H26c-6.79,0-9.18-3.25-9.18-9.58"/></g><g><path class="cls-1" d="M6.15,59.36c.21,0,.25,.03,.25,.78v.12c0,.72-.06,.8-.25,.8H2.12v2.66h3.41c.21,0,.25,.03,.25,.78v.12c0,.72-.06,.81-.25,.81H2.12v2.78H6.21c.2,0,.25,.03,.25,.78v.12c0,.72-.06,.8-.25,.8H.66c-.57,0-.66-.03-.66-.22v-10.1c0-.19,.09-.22,.66-.22H6.15Z"/><path class="cls-1" d="M9.2,58.6c.7,0,1.23,.56,1.23,1.2s-.53,1.2-1.23,1.2-1.23-.56-1.23-1.2,.53-1.2,1.23-1.2Zm.09,3.57c.86,0,.95,.06,.95,.22v7.29c0,.16-.09,.22-.95,.22h-.07c-.95,0-.98-.06-.98-.22v-7.29c0-.16,.03-.22,.98-.22h.07Z"/><path class="cls-1" d="M13.11,62.18c.72,0,.85,.03,.91,.19,.04,.13,.07,.37,.1,.59,.47-.54,1.23-.92,2.12-.92s1.6,.29,2.04,.79c.48,.54,.69,1.24,.69,2.36v4.51c0,.16-.09,.22-.95,.22h-.07c-.95,0-.98-.06-.98-.22v-3.95c0-1.01-.06-1.32-.29-1.58-.19-.22-.56-.34-.98-.34-.34,0-.72,.07-.98,.23-.31,.19-.38,.43-.41,.78-.03,.34-.03,.88-.03,1.44v3.43c0,.16-.09,.22-.95,.22h-.07c-.95,0-.98-.06-.98-.22v-4.04c0-1.14-.04-2.42-.1-3.21-.01-.21,.04-.26,.88-.26h.07Z"/><path class="cls-1" d="M21.35,62.18v-.35c0-1.07,.29-1.89,.82-2.43,.5-.51,1.22-.76,2.11-.76,.54,0,1.13,.1,1.61,.28,.13,.04,.15,.16,.03,.67l-.06,.25c-.12,.51-.19,.6-.31,.57-.34-.07-.63-.12-.94-.12-.47,0-.79,.12-.98,.38-.19,.26-.28,.67-.28,1.21v.29h1.68c.13,0,.19,.03,.19,.73v.1c0,.7-.06,.73-.19,.73h-1.68v5.94c0,.16-.09,.22-.95,.22h-.07c-.95,0-.98-.06-.98-.22v-5.94h-1.03c-.13,0-.19-.03-.19-.73v-.1c0-.7,.06-.73,.19-.73h1.03Z"/><path class="cls-1" d="M31.06,62.37c.01-.13,.07-.19,.86-.19h.09c.75,0,.85,.04,.85,.21,0,.48-.03,1.96-.03,3.16v.89c0,1.14,.04,2.42,.1,3.21,.01,.21,0,.26-.83,.26h-.07c-.72,0-.83-.03-.89-.19-.04-.09-.07-.32-.1-.5-.44,.5-1.26,.83-2.01,.83-1.92,0-3.1-1.46-3.1-3.87,0-2.67,1.48-4.16,3.24-4.16,.79,0,1.51,.38,1.84,.86l.06-.53Zm-.23,2.11c-.28-.43-.76-.7-1.27-.7-1.07,0-1.57,.85-1.57,2.36,0,1.3,.35,2.24,1.54,2.24,.47,0,.89-.18,1.1-.44,.16-.21,.21-.47,.21-.82v-2.63Z"/><path class="cls-1" d="M40.42,63.9c-.28,.53-.4,.53-.53,.44-.53-.37-1-.57-1.63-.57-1,0-1.83,.66-1.83,2.23,0,1.48,.64,2.31,1.92,2.31,.6,0,1.07-.16,1.63-.42,.18-.09,.22-.03,.47,.54l.09,.21c.22,.51,.2,.6,.07,.69-.6,.41-1.51,.73-2.52,.73s-1.95-.31-2.56-.88c-.75-.69-1.16-1.76-1.16-3.07s.38-2.31,1.07-3.03c.64-.66,1.55-1.04,2.75-1.04,.94,0,1.83,.32,2.49,.86,.16,.13,.13,.25-.12,.73l-.15,.28Z"/><path class="cls-1" d="M43.16,58.78c.86,0,.95,.06,.95,.22v3.81c.47-.47,1.16-.78,1.98-.78,.89,0,1.6,.29,2.04,.79,.48,.54,.69,1.24,.69,2.36v4.51c0,.16-.09,.22-.95,.22h-.07c-.95,0-.98-.06-.98-.22v-3.95c0-1.01-.06-1.32-.29-1.58-.19-.22-.56-.34-.98-.34-.34,0-.72,.07-.98,.23-.31,.19-.38,.43-.41,.78-.03,.34-.03,.88-.03,1.44v3.43c0,.16-.09,.22-.95,.22h-.07c-.95,0-.98-.06-.98-.22v-10.69c0-.16,.03-.22,.98-.22h.07Z"/><path class="cls-1" d="M50.12,72.32c-.16-.15-.19-.22-.06-.38,.67-.86,.81-1.42,.81-1.77,0-.69-.66-.73-.66-1.46,0-.53,.45-1.05,1.13-1.05,.76,0,1.3,.59,1.3,1.45,0,1.2-.7,2.43-1.83,3.47-.15,.13-.26,.13-.42-.01l-.26-.23Z"/><path class="cls-1" d="M58.07,62.18c.82,0,.97,.06,1.01,.23l.7,2.74c.21,.82,.51,2.34,.57,2.9,.09-.54,.48-2.12,.69-2.86l.76-2.78c.06-.19,.18-.23,.98-.23h.13c.79,0,.89,.07,.94,.21l.72,2.75c.29,1.11,.54,2.36,.63,2.87,.5-1.6,.95-3.88,1.23-5.59,.03-.19,.07-.23,.95-.23h.06c.72,0,.88,.04,.85,.23-.34,2.12-1.11,5.01-2.04,7.29-.07,.19-.22,.21-1.08,.21h-.12c-.98,0-1.07-.04-1.11-.19l-.66-2.4c-.26-.98-.51-1.95-.6-2.8-.09,.89-.34,1.93-.6,2.81l-.7,2.39c-.04,.13-.18,.19-1.05,.19h-.15c-.83,0-1-.04-1.04-.19l-2.06-7.26c-.06-.21,0-.28,.95-.28h.04Z"/><path class="cls-1" d="M71.05,66.73c.16,1.04,.82,1.61,1.93,1.61,.72,0,1.41-.19,2.06-.47,.16-.07,.23-.01,.4,.42l.13,.37c.18,.5,.16,.59-.02,.69-.73,.41-1.82,.7-2.84,.7-2.3,0-3.76-1.44-3.76-3.92s1.36-4.1,3.6-4.1,3.38,1.65,3.38,3.94c0,.57-.03,.76-.15,.76h-4.74Zm2.88-1.44c-.09-.91-.54-1.58-1.36-1.58s-1.33,.6-1.52,1.58h2.88Z"/><path class="cls-1" d="M78.57,58.6c.7,0,1.23,.56,1.23,1.2s-.53,1.2-1.23,1.2-1.23-.56-1.23-1.2,.53-1.2,1.23-1.2Zm.09,3.57c.86,0,.95,.06,.95,.22v7.29c0,.16-.09,.22-.95,.22h-.07c-.95,0-.98-.06-.98-.22v-7.29c0-.16,.03-.22,.98-.22h.07Z"/><path class="cls-1" d="M82.54,58.78c.83,0,.94,.04,.97,.19,.09,.42,.13,2.28,.13,4.26v4.66c0,.34,.12,.5,.48,.5h.18c.13,0,.15,.1,.15,.64v.13c0,.53-.01,.59-.13,.64-.22,.1-.6,.18-.98,.18-.53,0-.95-.16-1.23-.44-.35-.35-.47-.85-.47-1.54v-5.08c0-1.39-.07-3.43-.12-3.95-.01-.16,0-.19,.95-.19h.07Z"/><path class="cls-1" d="M85.79,63.93c-.16-.15-.19-.22-.06-.38,.67-.86,.81-1.42,.81-1.77,0-.69-.66-.73-.66-1.46,0-.53,.45-1.06,1.13-1.06,.76,0,1.3,.59,1.3,1.45,0,1.2-.7,2.43-1.83,3.47-.15,.13-.26,.13-.42-.01l-.26-.23Z"/><path class="cls-1" d="M89.88,68.25c.25-.44,.38-.57,.54-.45,.57,.38,1.26,.63,1.87,.63,.78,0,1.23-.29,1.23-.69,0-1.14-3.75-.44-3.75-3.24,0-1.54,1.32-2.47,3.03-2.47,.97,0,1.8,.26,2.42,.73,.15,.1,.12,.22-.18,.72l-.13,.2c-.26,.45-.37,.53-.53,.43-.47-.29-.92-.47-1.49-.47-.43,0-.76,.09-.95,.25-.13,.12-.21,.25-.21,.43,0,1.1,3.75,.53,3.75,3.16,0,.67-.28,1.32-.75,1.77-.54,.53-1.35,.81-2.42,.81-1.13,0-2.12-.37-2.72-.88-.12-.1-.1-.23,.13-.66l.15-.26Z"/><path class="cls-1" d="M100.85,62.18c.82,0,.97,.06,1.01,.23l.7,2.74c.21,.82,.51,2.34,.57,2.9,.09-.54,.48-2.12,.69-2.86l.76-2.78c.06-.19,.18-.23,.98-.23h.13c.79,0,.89,.07,.94,.21l.72,2.75c.29,1.11,.54,2.36,.63,2.87,.5-1.6,.95-3.88,1.23-5.59,.03-.19,.07-.23,.95-.23h.06c.72,0,.88,.04,.85,.23-.34,2.12-1.11,5.01-2.04,7.29-.07,.19-.22,.21-1.08,.21h-.12c-.98,0-1.07-.04-1.11-.19l-.66-2.4c-.26-.98-.51-1.95-.6-2.8-.09,.89-.34,1.93-.6,2.81l-.7,2.39c-.04,.13-.18,.19-1.05,.19h-.15c-.83,0-1-.04-1.04-.19l-2.06-7.26c-.06-.21,0-.28,.95-.28h.04Z"/><path class="cls-1" d="M113.32,58.6c.7,0,1.23,.56,1.23,1.2s-.53,1.2-1.23,1.2-1.23-.56-1.23-1.2,.53-1.2,1.23-1.2Zm.09,3.57c.86,0,.95,.06,.95,.22v7.29c0,.16-.09,.22-.95,.22h-.07c-.95,0-.98-.06-.98-.22v-7.29c0-.16,.03-.22,.98-.22h.07Z"/><path class="cls-1" d="M121.97,63.9c-.28,.53-.4,.53-.53,.44-.53-.37-1-.57-1.63-.57-1,0-1.83,.66-1.83,2.23,0,1.48,.64,2.31,1.92,2.31,.6,0,1.07-.16,1.63-.42,.18-.09,.22-.03,.47,.54l.09,.21c.22,.51,.21,.6,.07,.69-.6,.41-1.51,.73-2.52,.73s-1.95-.31-2.56-.88c-.75-.69-1.16-1.76-1.16-3.07s.38-2.31,1.07-3.03c.64-.66,1.55-1.04,2.75-1.04,.94,0,1.83,.32,2.49,.86,.16,.13,.13,.25-.12,.73l-.15,.28Z"/><path class="cls-1" d="M124.71,58.78c.86,0,.95,.06,.95,.22v3.81c.47-.47,1.16-.78,1.98-.78,.89,0,1.6,.29,2.04,.79,.48,.54,.69,1.24,.69,2.36v4.51c0,.16-.09,.22-.95,.22h-.07c-.95,0-.98-.06-.98-.22v-3.95c0-1.01-.06-1.32-.29-1.58-.19-.22-.56-.34-.98-.34-.34,0-.72,.07-.98,.23-.31,.19-.38,.43-.41,.78-.03,.34-.03,.88-.03,1.44v3.43c0,.16-.09,.22-.95,.22h-.07c-.95,0-.98-.06-.98-.22v-10.69c0-.16,.03-.22,.98-.22h.07Z"/><path class="cls-1" d="M133.75,60.07c.86,0,.95,.06,.95,.22v1.89h1.74c.13,0,.19,.03,.19,.73v.1c0,.7-.06,.73-.19,.73h-1.74v3.62c0,.42,.07,.66,.25,.82,.15,.13,.37,.21,.65,.21,.23,0,.5-.06,.76-.15,.15-.04,.22,.04,.38,.59l.04,.15c.16,.54,.15,.63-.03,.72-.47,.23-1.11,.37-1.68,.37-.82,0-1.39-.22-1.77-.6-.41-.41-.6-1.02-.6-1.98v-3.73h-1.01c-.13,0-.19-.03-.19-.73v-.1c0-.7,.06-.73,.19-.73h1.01v-1.89c0-.16,.03-.22,.98-.22h.07Z"/><path class="cls-1" d="M139.22,58.6c.7,0,1.23,.56,1.23,1.2s-.53,1.2-1.23,1.2-1.23-.56-1.23-1.2,.53-1.2,1.23-1.2Zm.09,3.57c.86,0,.95,.06,.95,.22v7.29c0,.16-.09,.22-.95,.22h-.07c-.95,0-.98-.06-.98-.22v-7.29c0-.16,.03-.22,.98-.22h.07Z"/><path class="cls-1" d="M147.93,62.18c.57,0,.69,.02,.75,.18,.13,.38,.13,1.82,.13,3.09v3.84c0,1.42-.31,2.43-.89,3.07-.6,.66-1.49,.97-2.68,.97-.88,0-1.86-.26-2.45-.6-.15-.09-.19-.19,.04-.75l.1-.25c.21-.48,.29-.6,.45-.53,.51,.23,1.16,.42,1.73,.42,1.08,0,1.68-.56,1.68-2.12v-.22c-.5,.42-1.16,.66-1.87,.66-1.92,0-3.1-1.44-3.1-3.84,.02-2.59,1.36-4.07,3.21-4.07,.79,0,1.46,.38,1.95,.91,.02-.15,.09-.53,.12-.6,.04-.1,.04-.16,.69-.16h.15Zm-1.13,2.48c-.32-.6-.82-.89-1.33-.89-.98,0-1.58,.76-1.58,2.34,0,1.41,.54,2.14,1.61,2.14,.41,0,.88-.15,1.1-.38,.16-.18,.21-.41,.21-.79v-2.42Z"/><path class="cls-1" d="M155.49,58.6c.7,0,1.23,.56,1.23,1.2s-.53,1.2-1.23,1.2-1.23-.56-1.23-1.2,.53-1.2,1.23-1.2Zm.09,3.57c.86,0,.95,.06,.95,.22v7.29c0,.16-.09,.22-.95,.22h-.07c-.95,0-.98-.06-.98-.22v-7.29c0-.16,.03-.22,.98-.22h.07Z"/><path class="cls-1" d="M158.43,68.25c.25-.44,.38-.57,.54-.45,.57,.38,1.26,.63,1.87,.63,.78,0,1.23-.29,1.23-.69,0-1.14-3.75-.44-3.75-3.24,0-1.54,1.32-2.47,3.03-2.47,.97,0,1.8,.26,2.42,.73,.15,.1,.12,.22-.18,.72l-.13,.2c-.26,.45-.37,.53-.53,.43-.47-.29-.92-.47-1.49-.47-.43,0-.76,.09-.95,.25-.13,.12-.21,.25-.21,.43,0,1.1,3.75,.53,3.75,3.16,0,.67-.28,1.32-.75,1.77-.54,.53-1.35,.81-2.42,.81-1.13,0-2.12-.37-2.72-.88-.12-.1-.1-.23,.13-.66l.15-.26Z"/><path class="cls-1" d="M167.02,60.07c.86,0,.95,.06,.95,.22v1.89h1.74c.13,0,.19,.03,.19,.73v.1c0,.7-.06,.73-.19,.73h-1.74v3.62c0,.42,.07,.66,.25,.82,.15,.13,.37,.21,.65,.21,.23,0,.5-.06,.76-.15,.15-.04,.22,.04,.38,.59l.04,.15c.16,.54,.15,.63-.03,.72-.47,.23-1.11,.37-1.68,.37-.82,0-1.39-.22-1.77-.6-.41-.41-.6-1.02-.6-1.98v-3.73h-1.01c-.13,0-.19-.03-.19-.73v-.1c0-.7,.06-.73,.19-.73h1.01v-1.89c0-.16,.03-.22,.98-.22h.07Z"/><path class="cls-1" d="M172.24,67.64c.73,0,1.26,.54,1.26,1.22s-.53,1.2-1.26,1.2-1.24-.54-1.24-1.2,.53-1.22,1.24-1.22Z"/></g></svg>