<svg width="527" height="600" viewBox="0 0 527 600" fill="none" xmlns="http://www.w3.org/2000/svg">
<path fill-rule="evenodd" clip-rule="evenodd" d="M263.548 587.36C287.089 528.024 534.97 585.209 469.292 178.559C463.057 138.249 482.729 82.6759 518.094 57.8437L465.1 7C417.05 44.6224 369 45.9115 321.057 7H206.038C158.096 45.9115 110.046 44.6224 61.9961 7L9 57.8437C44.366 82.6759 64.0379 138.249 57.8023 178.559C-7.87493 585.209 240.006 528.024 263.548 587.36Z" fill="white"/>
<path d="M263.548 587.36L264.815 584.661L266.396 582.12L268.281 579.723L270.46 577.457L272.917 575.309L275.641 573.265L278.62 571.312L281.841 569.437L285.292 567.625L288.961 565.867L292.836 564.144L296.904 562.447L301.154 560.761L305.571 559.072L310.145 557.369L314.863 555.637L319.711 553.863L324.68 552.035L329.756 550.137L334.927 548.159L340.179 546.084L345.502 543.901L350.883 541.599L356.309 539.16L361.768 536.572L367.248 533.824L372.738 530.901L378.221 527.789L383.691 524.479L389.131 520.951L394.531 517.197L399.876 513.201L405.158 508.951L410.361 504.435L415.475 499.636L420.486 494.543L425.383 489.143L430.152 483.421L434.783 477.367L439.262 470.964L443.578 464.201L447.716 457.063L451.667 449.54L455.417 441.615L458.953 433.277L462.264 424.511L465.339 415.304L468.162 405.645L470.724 395.519L473.011 384.912L475.009 373.812L476.71 362.205L478.099 350.077L479.164 337.417L479.894 324.211L480.273 310.444L480.292 296.104L479.939 281.176L479.2 265.651L478.063 249.511L476.516 232.745L474.545 215.34L472.143 197.283L469.292 178.559L468.424 170.833L468.148 162.816L468.45 154.577L469.313 146.183L470.724 137.701L472.668 129.197L475.129 120.74L478.094 112.397L481.544 104.234L485.468 96.3216L489.849 88.7253L494.672 81.5117L499.924 74.75L505.588 68.5065L511.651 62.8477L518.095 57.8437C518.095 57.8437 512.756 52.7215 505.467 45.7286C489.792 30.69 465.1 7 465.1 7L456.091 13.6264L447.082 19.3972L438.073 24.3047L429.064 28.3437L420.056 31.5079L411.049 33.7931L402.043 35.1915L393.039 35.6992L384.035 35.3112L375.033 34.0196L366.032 31.8191L357.033 28.7057L348.036 24.6732L339.04 19.7149L330.047 13.8256L321.057 7C321.057 7 295.781 7 268.926 7C238.495 7 206.039 7 206.039 7L197.048 13.8256L188.055 19.7149L179.06 24.6732L170.063 28.7057L161.064 31.8191L152.063 34.0196L143.061 35.3112L134.057 35.6992L125.052 35.1915L116.046 33.7931L107.039 31.5079L98.0314 28.3437L89.0223 24.3047L80.0144 19.3972L71.0054 13.6264L61.9963 7C61.9963 7 50.9708 17.5777 38.9777 29.0837C24.6769 42.8037 9.00015 57.8437 9.00015 57.8437L15.4442 62.8477L21.5067 68.5065L27.1707 74.75L32.422 81.5117L37.245 88.7253L41.6264 96.3216L45.5496 104.234L49.0015 112.397L51.965 120.74L54.4259 129.197L56.3687 137.701L57.7802 146.183L58.6447 154.577L58.9455 162.816L58.6694 170.833L57.8023 178.559L54.9507 197.283L52.5471 215.34L50.577 232.745L49.0302 249.511L47.8934 265.651L47.1538 281.176L46.801 296.104L46.8204 310.444L47.2007 324.211L47.9299 337.417L48.9936 350.077L50.383 362.205L52.0835 373.812L54.0835 384.912L56.3699 395.519L58.9311 405.645L61.7554 415.304L64.8283 424.511L68.1395 433.277L71.6772 441.615L75.4272 449.54L79.3778 457.063L83.5158 464.201L87.8322 470.964L92.3114 477.367L96.9416 483.421L101.711 489.143L106.608 494.543L111.619 499.636L116.733 504.435L121.936 508.951L127.218 513.201L132.564 517.197L137.964 520.951L143.404 524.479L148.872 527.789L154.359 530.901L159.847 533.824L165.327 536.572L170.785 539.16L176.212 541.599L181.594 543.901L186.916 546.084L192.168 548.159L197.339 550.137L202.415 552.035L207.383 553.863L212.232 555.637L216.951 557.369L221.524 559.072L225.941 560.761L230.191 562.447L234.259 564.144L238.134 565.867L241.803 567.625L245.255 569.437L248.476 571.312L251.455 573.265L254.179 575.309L256.636 577.457L258.815 579.723L260.7 582.12L262.281 584.661L263.548 587.36Z" stroke="#161413" stroke-width="10.7486"/>
<path fill-rule="evenodd" clip-rule="evenodd" d="M278.621 439.94C275.504 436.513 271.065 431.912 265.289 426.135C260.565 421.411 256.951 417.877 254.445 415.536C251.948 413.187 250.088 411.505 248.872 410.503C247.658 409.481 246.964 408.887 246.784 408.707C246.523 408.447 246.523 408.185 246.784 407.924C247.462 407.247 248.44 406.692 249.746 406.252C251.051 405.811 251.916 405.795 252.324 406.201C254.217 408.095 256.747 410.771 259.92 414.255C263.101 417.731 266.569 421.575 270.323 425.784C274.084 429.985 276.491 432.653 277.536 433.764L277.633 433.665C276.843 431.749 276.108 429.351 275.405 426.477C274.712 423.613 274.369 420.791 274.385 418.032C274.401 415.259 275.064 413.228 276.36 411.929C277.176 411.115 277.992 410.657 278.808 410.576C279.632 410.485 280.775 410.828 282.267 411.588C283.744 412.347 286.021 413.757 289.08 415.839C291.707 417.683 293.796 418.972 295.355 419.699C296.904 420.432 297.989 420.815 298.601 420.84C299.213 420.88 299.72 420.815 300.12 420.66C300.511 420.497 300.829 420.521 301.041 420.733C301.212 420.905 301.253 421.369 301.18 422.112C301.115 422.864 300.944 423.639 300.699 424.455C300.445 425.261 300.184 425.801 299.907 426.079C299.5 426.485 298.472 426.257 296.848 425.384C295.208 424.511 292.621 423.001 289.096 420.848C285.564 418.687 282.815 417.144 280.832 416.205C278.848 415.284 277.552 415.129 276.94 415.741C276.132 416.548 275.871 418.392 276.156 421.272C276.433 424.16 277.127 427.253 278.229 430.54C279.347 433.828 280.587 436.375 281.941 438.169C280.759 439.189 279.649 439.777 278.621 439.94ZM249.044 461.472C247.012 459.44 245.895 456.723 245.675 453.32C245.455 449.919 245.992 446.492 247.266 443.032C248.539 439.573 250.228 436.791 252.324 434.695C255.212 431.807 257.545 431.137 259.324 432.687C259.871 433.233 260.011 433.633 259.748 433.895C259.651 433.992 259.121 434.311 258.141 434.849C257.163 435.387 256.127 436.032 255.033 436.783C253.931 437.54 252.805 438.472 251.631 439.581C250.146 441.067 249.076 442.82 248.432 444.836C247.788 446.851 247.666 448.865 248.082 450.865C248.482 452.865 249.411 454.593 250.847 456.031C252.691 457.873 254.772 458.436 257.072 457.719C259.381 456.992 261.665 455.508 263.917 453.255C265.167 452.007 266.187 450.727 266.977 449.413C267.761 448.091 268.356 446.94 268.748 445.977C269.132 445.007 269.539 443.897 269.972 442.616C270.396 441.344 270.705 440.609 270.885 440.429C271.115 440.2 271.351 440.225 271.604 440.477C271.971 440.845 271.98 441.669 271.612 442.968C271.245 444.264 270.592 445.813 269.629 447.627C268.675 449.428 267.508 451.281 266.153 453.175C264.783 455.067 263.321 456.788 261.764 458.347C256.484 463.625 252.243 464.671 249.044 461.472ZM216.147 452.856C216.016 452.725 215.854 452.628 215.65 452.553C215.355 452.016 215.307 451.64 215.511 451.436C215.992 450.955 216.636 450.505 217.46 450.073C218.286 449.641 218.864 449.6 219.223 449.96L222.952 453.688C223.539 454.275 223.662 454.724 223.335 455.051C222.919 455.467 222.315 455.859 221.491 456.225C220.683 456.592 220.112 456.608 219.778 456.275C218.692 455.336 217.486 454.195 216.147 452.856ZM209.302 459.7C208.616 459.016 208.436 458.511 208.763 458.184C209.212 457.735 209.824 457.335 210.599 456.984C211.358 456.633 211.97 456.56 212.427 456.755L215.127 459.456C216.026 460.353 216.539 460.917 216.67 461.161C216.808 461.399 216.775 461.611 216.588 461.799C216.155 462.231 215.527 462.645 214.679 463.037C213.839 463.437 213.251 463.471 212.916 463.136C211.847 462.181 210.64 461.039 209.302 459.7ZM226.371 462.703C228.492 460.583 230.8 459.088 233.29 458.216C235.786 457.352 238.127 458.012 240.322 460.207C241.464 461.349 242.362 463.095 242.99 465.436C243.635 467.779 243.53 470.479 242.688 473.523C241.847 476.565 239.923 479.6 236.896 482.628C231.682 487.841 227.13 488.511 223.238 484.619C221.532 482.915 220.544 480.752 220.275 478.148C219.999 475.537 220.406 472.845 221.508 470.08C222.6 467.305 224.224 464.849 226.371 462.703ZM239 465.053C237.515 463.568 235.932 462.753 234.284 462.623C232.628 462.483 231.062 462.777 229.586 463.52C228.116 464.255 226.803 465.208 225.644 466.367C224.436 467.575 223.539 468.995 222.927 470.635C222.323 472.283 222.136 473.907 222.38 475.521C222.618 477.144 223.327 478.54 224.518 479.732C225.775 480.988 227.252 481.699 228.948 481.861C230.638 482.032 232.311 481.763 233.951 481.087C235.598 480.401 237.01 479.477 238.176 478.311C239.458 477.032 240.371 475.579 240.918 473.955C241.464 472.331 241.579 470.732 241.252 469.165C240.927 467.599 240.176 466.228 239 465.053ZM199.218 514.545C194.575 509.496 190.756 505.481 187.762 502.487C184.719 499.444 182.174 497.029 180.108 495.243C178.052 493.447 176.412 492.117 175.206 491.253C174.006 490.379 173.011 489.727 172.227 489.285C171.444 488.845 171.019 488.584 170.971 488.535C170.767 488.331 170.864 488.037 171.248 487.653C171.738 487.164 172.48 486.699 173.475 486.259C174.463 485.811 175.458 485.565 176.462 485.525C177.474 485.476 178.264 485.745 178.844 486.324C179.472 486.952 180.443 488.021 181.748 489.523C183.063 491.016 184.914 493.144 187.304 495.912C189.704 498.668 191.98 501.255 194.134 503.653C196.296 506.044 198.222 508.116 199.902 509.847C200.49 510.304 201.224 510.973 202.106 511.855C205.231 508.729 208.274 505.637 211.243 502.585C214.214 499.517 216.482 497.135 218.056 495.429C219.623 493.732 220.83 492.411 221.654 491.473C222.479 490.551 223 489.979 223.212 489.767C223.474 489.507 223.834 489.604 224.298 490.069C224.486 490.256 224.355 490.584 223.891 491.048C223.139 492.223 221.907 493.944 220.186 496.221C218.464 498.48 216.294 501.255 213.643 504.543C210.999 507.823 208.722 510.573 206.814 512.809C204.912 515.035 203.371 516.741 202.203 517.908C200.416 519.695 198.638 520.691 196.867 520.877C195.096 521.083 193.775 520.74 192.91 519.873C192.551 519.516 192.494 519.213 192.755 518.952C192.788 518.92 193.603 518.429 195.187 517.483C196.778 516.545 198.116 515.567 199.218 514.545ZM388.511 200.817C388.248 200.557 388.216 200.328 388.403 200.141C388.844 199.7 389.66 199.244 390.851 198.755C392.051 198.272 392.801 198.175 393.103 198.477C393.715 199.088 395.103 200.785 397.281 203.551C399.459 206.333 401.18 208.593 402.461 210.365L402.552 210.275C400.177 203.249 399.288 198.052 399.875 194.691C400.461 191.329 401.352 189.052 402.552 187.853C403.432 186.973 404.411 186.629 405.472 186.841C406.541 187.045 407.977 187.715 409.789 188.841L419.293 194.903C420.787 195.956 421.872 196.144 422.565 195.449C422.704 195.311 422.835 195.311 422.973 195.449C423.348 195.824 423.317 196.673 422.892 197.995C422.467 199.316 422.06 200.165 421.684 200.54C421.383 200.843 421.056 200.924 420.704 200.785C420.371 200.647 419.644 200.263 418.551 199.659L408.221 193.344C407.039 192.635 405.961 192.211 404.999 192.064C404.036 191.917 403.319 192.08 402.844 192.553C401.923 193.476 401.449 195.075 401.425 197.365C401.408 199.651 401.768 202.213 402.535 205.036C403.287 207.86 404.289 210.477 405.545 212.876C405.595 212.991 405.66 213.121 405.733 213.26C405.799 213.391 405.847 213.523 405.847 213.636C405.855 213.757 405.797 213.88 405.684 213.995C405.3 214.379 404.737 214.713 404.004 214.991C403.269 215.284 402.715 215.235 402.347 214.868C402.151 214.672 401.685 214.109 400.96 213.203C400.227 212.289 399.304 211.204 398.177 209.932C397.052 208.659 395.632 207.175 393.936 205.477C392.623 204.163 391.348 203.021 390.124 202.041C388.9 201.08 388.355 200.663 388.511 200.817ZM368.724 200.516C369.057 200.183 369.677 199.823 370.559 199.431C371.448 199.032 372.011 198.909 372.248 199.047C372.476 199.096 373.619 200.141 375.675 202.197C376.556 203.079 376.873 203.625 376.647 203.853C376.303 204.197 375.781 204.539 375.079 204.865C374.377 205.192 373.749 205.297 373.195 205.167C372.999 205.087 372.313 204.531 371.131 203.493C369.956 202.449 369.123 201.699 368.633 201.209C368.437 201.015 368.463 200.777 368.724 200.516ZM377.885 211.816C377.699 211.629 377.723 211.409 377.984 211.147C378.572 210.56 379.485 209.973 380.733 209.393C381.973 208.807 382.839 208.756 383.32 209.239C384.063 209.98 385.743 211.841 388.345 214.803C390.956 217.772 392.785 219.78 393.845 220.84C394.4 221.395 395.061 222.024 395.844 222.741C396.627 223.46 397.125 223.924 397.329 224.129C397.581 224.381 397.549 224.675 397.224 225.001C396.725 225.499 396.089 225.891 395.339 226.168C394.588 226.445 393.992 226.372 393.56 225.94L384.307 216.688C382.821 215.201 381.655 214.149 380.799 213.523C379.951 212.885 379.264 212.461 378.76 212.249C378.253 212.036 377.959 211.891 377.885 211.816ZM363.535 249.487C362.832 248.785 362.081 247.609 361.299 245.963C360.508 244.307 359.977 242.34 359.716 240.055C359.439 237.771 359.764 235.291 360.663 232.597C361.56 229.921 363.297 227.287 365.868 224.716C367.377 223.205 368.609 222.268 369.572 221.892C370.527 221.527 371.456 221.591 372.345 222.088C373.235 222.587 374.5 223.623 376.156 225.199C376.589 224.977 376.931 224.993 377.184 225.247C377.437 225.499 377.127 226.265 376.255 227.547L364.668 243.947C366.601 245.88 368.657 246.583 370.828 246.028C372.991 245.48 375.317 243.972 377.788 241.499C379.697 239.589 381.191 237.804 382.276 236.131C383.369 234.449 384.233 232.883 384.895 231.407C385.548 229.937 385.923 229.155 386.004 229.073C386.233 228.844 386.501 228.901 386.828 229.228C387.155 229.553 387.269 229.831 387.179 230.052C385.956 232.908 384.283 235.837 382.128 238.823C379.991 241.809 377.935 244.289 375.968 246.255C373.276 248.948 370.992 250.612 369.107 251.256C367.213 251.893 365.353 251.307 363.535 249.487ZM363.543 242.625L371.66 231.373C372.567 230.125 373.032 229.285 373.072 228.868C373.105 228.445 372.795 227.907 372.143 227.253C369.915 225.027 367.647 225.075 365.329 227.392C363.893 228.893 362.841 230.597 362.172 232.508C361.519 234.417 361.299 236.269 361.536 238.072C361.772 239.86 362.449 241.384 363.543 242.625ZM349.541 269.355C349.395 269.207 348.571 268.188 347.061 266.287C345.552 264.385 344.092 262.729 342.68 261.317C341.407 260.044 340.135 258.869 338.853 257.801C337.58 256.724 336.879 256.12 336.748 255.989C336.233 255.476 336.284 254.905 336.903 254.284C337.319 253.868 337.98 253.517 338.885 253.232C339.784 252.955 340.469 253.035 340.925 253.492C341.373 253.941 341.904 254.569 342.533 255.363C343.152 256.16 344.027 257.311 345.136 258.812C346.261 260.313 347.42 261.848 348.603 263.421L348.817 263.439C348.343 262.165 347.943 260.868 347.624 259.539C347.297 258.2 347.053 257.009 346.881 255.957C346.727 254.905 346.555 253.704 346.408 252.351C346.245 250.996 346.107 249.665 345.968 248.353C345.136 247.521 344.565 246.427 344.239 245.073C343.92 243.709 344.108 242.691 344.801 241.996C344.964 241.833 345.177 241.865 345.429 242.119C345.837 242.528 346.629 243.073 347.788 243.743C348.955 244.421 350.169 244.901 351.435 245.188C352.699 245.488 353.703 245.351 354.437 244.779C354.927 244.484 355.253 244.421 355.424 244.591C355.652 244.819 355.588 245.293 355.22 246.003C354.861 246.72 354.453 247.309 353.988 247.773C353.14 248.621 352.087 249.2 350.839 249.487C349.599 249.78 348.481 249.707 347.485 249.265C347.828 251.289 348.139 253.167 348.424 254.905C348.709 256.625 349.02 258.291 349.379 259.872C349.721 261.456 350.121 262.867 350.561 264.108C351.001 265.348 351.524 266.36 352.128 267.144C352.593 267.739 352.691 268.163 352.429 268.423C351.94 268.913 351.419 269.256 350.863 269.435C350.317 269.623 349.876 269.591 349.541 269.355ZM320.023 292.999C319.32 292.297 318.569 291.123 317.787 289.475C316.995 287.817 316.465 285.852 316.204 283.567C315.927 281.283 316.253 278.803 317.151 276.109C318.048 273.433 319.785 270.799 322.356 268.228C323.865 266.719 325.097 265.78 326.06 265.405C327.015 265.037 327.945 265.103 328.835 265.6C329.723 266.097 330.988 267.135 332.644 268.709C333.076 268.488 333.42 268.505 333.672 268.757C333.925 269.012 333.616 269.777 332.743 271.059L321.156 287.459C323.091 289.392 325.147 290.093 327.316 289.539C329.479 288.992 331.804 287.483 334.276 285.011C336.185 283.101 337.677 281.315 338.763 279.643C339.857 277.961 340.721 276.395 341.383 274.919C342.036 273.449 342.411 272.667 342.492 272.585C342.721 272.357 342.989 272.415 343.317 272.74C343.643 273.067 343.757 273.344 343.667 273.564C342.443 276.42 340.771 279.349 338.617 282.335C336.479 285.32 334.423 287.801 332.456 289.767C329.764 292.46 327.48 294.125 325.595 294.769C323.703 295.405 321.841 294.817 320.023 292.999ZM320.031 286.137L328.149 274.885C329.055 273.637 329.519 272.797 329.56 272.381C329.593 271.957 329.283 271.419 328.629 270.765C326.403 268.537 324.135 268.588 321.817 270.904C320.381 272.405 319.328 274.111 318.66 276.02C318.007 277.928 317.787 279.781 318.023 281.585C318.26 283.371 318.937 284.897 320.031 286.137ZM310.557 312.727C310.151 313.136 309.301 313.103 308.012 312.613C306.723 312.14 304.348 311.136 300.873 309.601C297.397 308.068 294.559 306.943 292.347 306.233C290.128 305.515 288.431 305.335 287.264 305.687C286.872 305.816 286.579 305.784 286.383 305.588C286.123 305.327 286.236 304.952 286.717 304.471C288.847 302.341 290.348 301.232 291.229 301.133C291.483 301.125 293.375 301.908 296.9 303.491C300.424 305.089 303.345 306.347 305.655 307.285C307.972 308.215 309.293 308.525 309.628 308.192C310.141 307.677 310.183 306.004 309.775 303.165C309.359 300.333 308.551 297.356 307.343 294.255C306.127 291.147 304.691 288.764 303.027 287.099C302.823 286.896 302.627 286.765 302.431 286.7C302.097 286.137 301.999 285.777 302.147 285.632C302.521 285.255 303.516 285.255 305.116 285.631C306.723 286.015 307.767 286.456 308.257 286.944C309.351 288.037 310.157 290.527 310.672 294.419C311.185 298.311 311.407 302.219 311.341 306.151C311.276 310.084 311.015 312.269 310.557 312.727ZM271.655 305.629C268.636 302.609 266.148 300.317 264.199 298.759C262.24 297.193 261.253 296.401 261.228 296.376C260.967 296.115 261 295.821 261.327 295.495C261.937 294.884 262.885 294.377 264.165 293.961C265.447 293.545 266.319 293.521 266.768 293.871C266.663 293.765 269.371 296.687 274.903 302.643C280.427 308.607 284.897 313.291 288.3 316.693C290.691 319.084 292.705 321 294.337 322.436C295.977 323.865 296.811 324.599 296.835 324.624C297.088 324.876 297.021 325.203 296.631 325.593C296.043 326.181 295.365 326.631 294.599 326.94C293.824 327.259 293.253 327.227 292.861 326.835L271.655 305.629ZM260.747 316.537C257.728 313.519 255.239 311.227 253.289 309.668C251.331 308.101 250.344 307.311 250.32 307.285C250.059 307.024 250.092 306.731 250.418 306.404C251.03 305.793 251.976 305.287 253.257 304.869C254.539 304.455 255.411 304.429 255.86 304.78C255.753 304.675 258.461 307.595 263.995 313.551C269.517 319.516 273.989 324.199 277.391 327.601C279.783 329.992 281.797 331.909 283.428 333.345C285.068 334.773 285.901 335.507 285.925 335.532C286.179 335.785 286.113 336.111 285.721 336.503C285.135 337.089 284.456 337.539 283.689 337.849C282.915 338.168 282.344 338.135 281.952 337.744L260.747 316.537ZM257.916 336.699C258.772 335.613 259.327 334.504 259.588 333.377C260.551 334.161 262.191 335.508 264.524 337.4C266.857 339.311 269.109 340.941 271.288 342.304C273.467 343.667 274.845 344.049 275.432 343.463C275.669 343.225 275.915 343.243 276.184 343.512C276.453 343.78 276.339 344.596 275.849 345.951C275.368 347.297 274.935 348.171 274.552 348.553C274.307 348.733 273.825 348.644 273.108 348.284C272.389 347.909 271.353 347.281 269.991 346.36C268.636 345.445 267.616 344.784 266.924 344.352C267.087 347.469 266.523 350.561 265.217 353.612C263.912 356.664 262.207 359.251 260.077 361.38C255.86 365.597 252.351 366.3 249.536 363.484C247.896 361.845 246.86 359.437 246.411 356.232C245.963 353.04 246.159 349.811 247.007 346.547C247.847 343.275 249.186 340.729 251.012 338.903C252.784 337.132 255.084 336.397 257.916 336.699ZM265.413 344.001C265.267 343.609 264.696 342.908 263.692 341.904C263.153 341.365 262.42 340.795 261.481 340.199C260.551 339.595 259.661 339.097 258.813 338.705C257.972 338.323 257.427 338.151 257.189 338.224C255.737 338.681 254.611 339.121 253.804 339.537C252.996 339.955 252.148 340.607 251.259 341.496C249.944 342.811 249.039 344.499 248.55 346.555C248.043 348.611 248.076 350.732 248.631 352.903C249.194 355.081 250.295 356.999 251.943 358.645C252.645 359.348 253.501 359.812 254.521 360.033C255.533 360.261 256.577 360.212 257.647 359.877C258.715 359.544 259.687 358.932 260.56 358.059C261.539 357.08 262.452 355.757 263.292 354.119C264.141 352.471 264.761 350.724 265.161 348.905C265.56 347.085 265.651 345.445 265.413 344.001ZM220.131 381.435C218.402 379.704 217.039 378.311 216.044 377.249C215.048 376.189 213.107 374.084 210.202 370.933C207.306 367.776 205.095 365.385 203.576 363.769C202.059 362.155 200.468 360.499 198.788 358.817C198.527 358.556 198.584 358.239 198.975 357.847C199.668 357.153 200.51 356.721 201.496 356.532C202.484 356.345 203.372 356.664 204.164 357.455C205.2 358.491 207.102 360.816 209.859 364.439C212.618 368.045 214.82 370.901 216.492 372.981C218.166 375.063 220.074 377.184 222.228 379.337L222.278 379.289C222.294 378.016 222.514 376.376 222.914 374.361C223.322 372.337 223.983 370.256 224.912 368.103C225.835 365.957 227.067 364.121 228.6 362.588C229.784 361.404 231.015 360.547 232.296 360.032C233.57 359.512 234.794 359.365 235.984 359.592C237.167 359.812 238.252 360.409 239.215 361.371C241.124 363.28 242.128 365.867 242.218 369.123C242.299 372.369 241.696 375.633 240.382 378.905C239.068 382.177 237.436 384.788 235.503 386.721L235.404 386.819C234.271 387.953 233.047 388.589 231.75 388.712C230.452 388.851 228.862 388.337 226.984 387.195C225.108 386.052 222.824 384.127 220.131 381.435ZM223.354 380.464C225.304 382.415 227.148 383.588 228.878 383.964C230.599 384.348 232.126 384.208 233.455 383.564C234.776 382.912 236.066 381.965 237.307 380.724C238.742 379.289 239.631 377.681 239.991 375.903C240.342 374.132 240.235 372.411 239.664 370.731C239.094 369.049 238.212 367.613 237.012 366.415C235.584 364.985 234.075 364.244 232.46 364.179C230.844 364.113 229.45 364.676 228.25 365.875C227.368 366.756 226.544 367.988 225.794 369.555C225.043 371.121 224.448 372.843 224.023 374.736C223.591 376.621 223.371 378.537 223.354 380.464ZM184.819 395.697C182.347 393.224 180.887 390.376 180.414 387.161C179.948 383.939 180.178 380.888 181.115 378.024C182.062 375.152 183.236 373.015 184.648 371.603C186.32 369.929 188.083 369.016 189.951 368.861C191.812 368.715 193.395 369.285 194.675 370.567C195.744 371.636 196.323 372.949 196.43 374.524C196.527 376.089 196.536 378.416 196.455 381.5C196.356 384.584 196.568 386.379 197.074 386.884C197.604 387.416 198.551 387.381 199.93 386.787C201.3 386.183 202.875 385.489 204.646 384.699C206.416 383.907 208.187 383.539 209.95 383.604C211.72 383.679 213.408 384.519 215.04 386.149C215.906 387.016 216.64 388.271 217.235 389.912C217.831 391.552 218.156 393.396 218.206 395.452C218.263 397.5 217.92 399.572 217.178 401.652C216.444 403.741 215.236 405.617 213.564 407.291C212.887 407.968 212.03 408.58 210.986 409.119C209.94 409.656 208.912 409.967 207.884 410.048C206.866 410.121 206.048 409.861 205.446 409.256C205.02 408.832 205.038 408.392 205.503 407.927C205.699 407.731 206.375 407.429 207.55 407.005C208.734 406.573 209.875 406.067 210.986 405.463C212.103 404.867 213.23 404.003 214.347 402.884C217.807 399.424 217.104 395.264 212.25 390.411C210.756 388.917 209.239 388.199 207.68 388.24C206.123 388.296 204.63 388.696 203.194 389.429C201.75 390.173 200.28 390.875 198.788 391.535C197.294 392.197 196.202 392.18 195.508 391.485C195.002 390.98 194.748 389.961 194.74 388.419C194.74 386.884 194.748 385.343 194.782 383.793C194.806 382.235 194.602 380.659 194.186 379.068C193.754 377.477 192.896 376.032 191.608 374.745C190.466 373.601 189.216 373.055 187.871 373.129C186.532 373.195 185.391 373.699 184.46 374.631C183.351 375.74 182.6 376.881 182.192 378.073C181.8 379.264 181.834 380.684 182.298 382.34C182.763 384.013 183.751 385.979 185.243 388.255C186.394 390.027 187.855 392.025 189.642 394.268C191.42 396.504 193.696 399.156 196.446 402.215C199.211 405.275 202.386 408.677 205.984 412.421C209.582 416.168 213.694 420.345 218.312 424.963C218.736 425.387 218.883 425.664 218.752 425.796C218.092 426.456 217.512 426.741 217.007 426.66C216.51 426.571 215.979 426.252 215.432 425.705C212.618 422.891 209.99 420.296 207.575 417.929C205.143 415.564 202.427 412.912 199.424 410.007C196.422 407.103 193.655 404.403 191.118 401.913C188.588 399.433 186.484 397.361 184.819 395.697ZM176.864 435.391C176.522 435.047 175.24 433.505 173.038 430.78C170.835 428.055 169.015 425.991 167.595 424.571C167.204 424.18 167.147 423.845 167.408 423.584C167.726 423.265 168.51 422.907 169.758 422.507C171.014 422.115 171.732 422.017 171.92 422.204C171.952 422.239 172.328 422.939 173.046 424.295C173.763 425.664 174.555 427.028 175.428 428.407C176.302 429.785 177.199 430.927 178.128 431.857C180.291 434.02 182.102 434.363 183.579 432.885C184.698 431.767 185.415 430.136 185.726 428.015C186.035 425.893 185.97 423.625 185.52 421.217C185.08 418.819 184.371 416.721 183.407 414.927C182.706 413.671 182.388 412.781 182.428 412.267C182.486 411.755 182.991 410.921 183.947 409.771C184.102 409.925 184.272 410.145 184.492 410.431C184.706 410.709 184.892 410.945 185.064 411.117C186.182 412.235 187.806 413.532 189.935 415.009C192.056 416.493 194.023 417.677 195.826 418.567C197.612 419.456 198.706 419.716 199.082 419.341C199.603 418.819 200.011 418.689 200.296 418.975C200.452 419.129 200.387 419.716 200.1 420.753C199.971 421.195 199.832 421.707 199.684 422.295C199.539 422.881 199.408 423.339 199.302 423.673C199.187 424 199.056 424.228 198.918 424.367C198.584 424.701 197.58 424.383 195.9 423.404C194.219 422.425 192.106 421.047 189.543 419.284C186.998 417.523 185.716 416.633 185.716 416.633L185.611 416.739C186.263 418.533 186.72 420.411 186.974 422.393C187.234 424.367 187.299 426.293 187.162 428.161C187.023 430.031 186.687 431.719 186.166 433.22C185.643 434.721 184.966 435.888 184.142 436.712C182.159 438.695 179.728 438.255 176.864 435.391ZM142.432 450.517L141.65 449.537C144.204 446.92 146.594 444.332 148.822 441.761C151.048 439.208 153.096 436.768 154.966 434.477C156.826 432.192 157.927 430.863 158.254 430.503C158.547 430.209 158.931 430.299 159.42 430.788C159.812 431.18 160.098 431.809 160.286 432.699C160.482 433.579 160.252 434.345 159.607 434.989C158.914 435.684 157.576 436.875 155.586 438.556C153.603 440.245 151.644 441.941 149.727 443.647C147.802 445.344 145.371 447.644 142.432 450.517ZM125.201 441.509C124.973 441.787 124.377 442.561 123.39 443.843C122.42 445.124 121.661 446.031 121.137 446.551C120.829 446.863 120.355 447.008 119.735 446.992C119.107 446.968 118.674 446.845 118.437 446.609C117.924 446.095 118.063 445.433 118.846 444.649C120.575 442.921 122.256 441.369 123.872 440L122.264 438.392C121.93 438.059 121.841 437.821 121.971 437.691C122.68 436.981 123.57 436.548 124.622 436.393C125.675 436.239 126.498 436.443 127.061 437.005C130.057 434.012 132.715 431.255 135.048 428.724C137.383 426.211 139.439 423.927 141.21 421.879C142.988 419.823 144.424 418.157 145.526 416.861C146.635 415.572 147.419 414.691 147.867 414.243C148.21 413.899 148.471 413.72 148.642 413.711C148.814 413.703 149.059 413.851 149.352 414.144C149.711 414.585 149.988 415.172 150.168 415.889C150.347 416.608 150.331 417.375 150.143 418.183C149.948 418.999 149.491 419.749 148.79 420.451C148.144 421.095 147.28 421.847 146.195 422.719C145.11 423.576 143.624 424.767 141.756 426.276C139.879 427.795 137.88 429.499 135.751 431.384C133.63 433.277 131.141 435.619 128.286 438.424C130.937 441.339 134.446 445.108 138.811 449.733C142.222 453.095 145.706 456.269 149.262 459.255C152.819 462.257 154.982 464.143 155.756 464.919C156.271 465.431 156.271 465.953 155.74 466.484C154.851 467.373 153.847 468.033 152.746 468.451C151.644 468.865 150.731 468.72 150.012 468.001C148.34 466.329 146.659 464.567 144.955 462.715C143.25 460.863 141.275 458.676 139.031 456.139C136.787 453.617 134.755 451.373 132.953 449.408C131.149 447.44 129.314 445.524 127.454 443.663C127.209 443.419 126.833 443.06 126.327 442.587C125.813 442.104 125.438 441.747 125.201 441.509Z" fill="#161413"/>
<path fill-rule="evenodd" clip-rule="evenodd" d="M389.695 412.049C391.041 413.396 392.56 414.196 394.256 414.44C395.953 414.7 397.633 414.488 399.305 413.796C400.979 413.119 402.496 412.089 403.851 410.736C405.408 409.177 406.56 407.325 407.293 405.171C408.028 403.017 408.176 400.831 407.751 398.628C407.327 396.424 406.265 394.467 404.568 392.769C400.359 388.56 395.84 388.869 391.009 393.699C388.276 396.432 386.668 399.46 386.211 402.772C385.745 406.077 386.912 409.169 389.695 412.049ZM384.84 401.32H385.036C385.403 400.153 385.892 398.963 386.521 397.731C387.151 396.515 387.892 395.315 388.74 394.141C389.589 392.949 390.527 391.848 391.556 390.819C397.299 385.076 402.096 384.129 405.956 387.988C408.176 390.207 409.448 392.981 409.783 396.303C410.117 399.624 409.677 402.952 408.453 406.264C407.229 409.593 405.565 412.352 403.452 414.545C400.929 417.068 398.368 418.633 395.765 419.245C393.155 419.865 390.804 419.132 388.716 417.043C386.928 415.255 385.541 412.352 384.555 408.312C383.567 404.291 382.931 399.949 382.653 395.3C382.376 390.648 382.384 386.528 382.661 382.937C382.947 379.34 383.372 377.252 383.967 376.655C384.44 376.183 385.215 376.076 386.284 376.345C387.352 376.615 388.161 377.032 388.724 377.593C388.976 377.847 389.001 378.067 388.797 378.271C388.676 378.393 388.496 378.524 388.259 378.631C388.013 378.744 387.811 378.883 387.631 379.063C386.644 380.049 385.917 383.109 385.468 388.241C385.011 393.381 384.807 397.747 384.84 401.32ZM375.996 426.14C371.043 431.532 367.844 434.96 366.4 436.404C363.161 439.644 360.763 440.476 359.204 438.917C358.78 438.492 358.259 437.285 357.637 435.295L351.135 413.501C351.053 413.355 350.98 413.151 350.915 412.873C350.849 412.596 350.915 412.352 351.135 412.131C351.273 411.992 351.617 411.895 352.147 411.853C352.677 411.812 353.224 411.853 353.787 411.992C354.349 412.115 354.807 412.36 355.157 412.709C355.484 413.036 355.736 413.421 355.916 413.844C356.096 414.268 356.185 414.555 356.185 414.717L359.261 432.904C359.368 433.451 359.457 433.916 359.531 434.267C359.596 434.625 359.677 434.92 359.76 435.147C359.841 435.376 359.955 435.556 360.101 435.701C360.517 436.119 361.563 435.679 363.26 434.388C364.94 433.099 366.833 431.452 368.929 429.452C371.027 427.453 372.797 425.764 374.241 424.385L364.508 414.048C364.011 413.551 363.928 413.143 364.255 412.816C364.728 412.343 365.479 411.984 366.507 411.755C367.535 411.528 368.252 411.625 368.669 412.041C368.963 412.335 370.047 413.616 371.94 415.901C373.825 418.177 375.521 420.069 377.04 421.588C378.712 419.915 380.035 418.447 381.013 417.173C382 415.892 382.465 415.28 382.417 415.329C382.484 415.264 382.596 415.312 382.76 415.477C383.363 416.08 383.273 416.985 382.499 418.201C381.731 419.409 380.427 421.057 378.591 423.139L385.851 430.4C386.431 430.977 386.529 431.468 386.129 431.867C385.672 432.324 385.003 432.716 384.113 433.033C383.233 433.345 382.653 433.368 382.376 433.091C381.487 432.201 380.369 431.003 379.023 429.493C377.668 427.976 376.656 426.865 375.996 426.14ZM347.627 446.497C346.516 452.176 344.143 456.835 340.52 460.457C338.228 462.751 335.788 464.047 333.209 464.324C330.632 464.601 328.289 463.697 326.177 461.584C324.348 459.755 323.239 457.275 322.84 454.149C322.448 451.017 322.831 447.761 323.989 444.367C325.156 440.98 327.009 438.02 329.545 435.481C330.965 434.063 332.516 432.921 334.173 432.064C335.837 431.199 337.559 430.832 339.337 430.977C341.108 431.117 342.772 431.965 344.331 433.524C346.1 435.295 347.553 438.199 348.687 442.239C349.813 446.285 350.572 450.699 350.963 455.496C351.355 460.311 351.355 464.569 350.972 468.281C350.589 471.993 349.879 474.368 348.835 475.413C348.328 475.919 347.561 476.131 346.525 476.073C345.497 476.008 344.788 475.788 344.412 475.413C344.224 475.225 344.192 474.996 344.321 474.719C344.485 474.701 344.665 474.588 344.869 474.384C345.717 473.535 346.5 471.692 347.211 468.845C347.92 465.996 348.352 462.561 348.508 458.524C348.663 454.484 348.409 450.463 347.765 446.439L347.627 446.497ZM328.077 457.023C329.807 458.752 331.863 459.699 334.255 459.869C336.628 460.04 338.945 458.996 341.205 456.737C343 454.941 344.289 452.885 345.089 450.552C345.897 448.227 346.109 445.959 345.759 443.763C345.391 441.569 344.477 439.741 343.009 438.272C340.659 435.921 338.252 434.92 335.788 435.261C333.324 435.604 331.169 436.699 329.309 438.559C327.637 440.231 326.404 442.181 325.623 444.417C324.839 446.652 324.643 448.888 325.035 451.123C325.417 453.351 326.437 455.316 328.077 457.023ZM305.321 465.581C305.085 467.155 304.784 469.383 304.432 472.263C304.081 475.144 303.796 477.337 303.592 478.848C303.38 480.349 303.16 481.516 302.931 482.348C302.703 483.18 302.401 483.776 302.051 484.127C301.609 484.567 300.9 484.885 299.921 485.065C298.941 485.244 298.337 485.228 298.125 485.016C298.061 484.951 298.224 484.527 298.615 483.743C299.464 481.816 300.329 479.385 301.201 476.457C302.067 473.52 302.841 470.541 303.511 467.523C304.188 464.495 304.661 461.949 304.931 459.903C304.939 459.356 304.971 459.061 305.02 459.013C305.085 458.948 305.224 459.021 305.42 459.217C305.779 459.576 306.056 459.919 306.252 460.245C306.749 461.004 307.729 462.244 309.197 463.957C310.667 465.671 312.379 467.596 314.329 469.725C316.288 471.864 318.237 473.944 320.179 475.983C322.129 478.032 323.983 479.932 325.736 481.687C326.861 482.812 327.817 483.717 328.6 484.42C329.391 485.113 329.987 485.611 330.387 485.913C330.795 486.207 330.983 486.329 330.941 486.289C331.195 486.541 331.195 486.803 330.925 487.072C330.387 487.609 329.545 488.124 328.428 488.605C327.303 489.095 326.543 489.136 326.136 488.728C324.993 487.456 323.565 485.848 321.86 483.915C320.155 481.964 318.261 479.811 316.189 477.427C314.109 475.053 312.208 472.923 310.471 471.039C308.749 469.155 307.027 467.335 305.321 465.581ZM461.171 255.513L456.96 251.304C456.576 250.92 456.561 250.544 456.92 250.187C457.508 249.597 458.275 249.043 459.236 248.537C460.191 248.024 460.917 248.016 461.407 248.505L465.421 252.52C465.952 253.049 466.049 253.475 465.724 253.8C465.144 254.379 464.344 254.919 463.317 255.408C462.296 255.889 461.587 255.929 461.171 255.513ZM401.732 256.42C404.833 253.319 407.337 252.151 409.231 252.935L440.845 266.439C442.901 267.32 444.176 267.516 444.665 267.027C444.844 266.847 444.975 266.455 445.065 265.843C445.04 264.252 444.648 261.771 443.891 258.385C443.139 255.008 442.16 251.417 440.936 247.632C439.72 243.837 438.383 240.345 436.921 237.172C435.469 234.007 434.025 231.713 432.623 230.311C431.569 229.257 430.721 228.507 430.076 228.075C429.424 227.635 428.885 227.34 428.453 227.185C428.02 227.031 427.735 226.875 427.588 226.728C427.393 226.532 427.456 226.271 427.784 225.945C428.168 225.561 428.975 225.309 430.199 225.179C431.439 225.048 432.704 225.104 434.009 225.349C435.305 225.587 436.261 226.019 436.881 226.639C437.705 227.463 438.7 229.584 439.851 233.003C441.011 236.429 442.152 240.492 443.261 245.192C444.38 249.884 445.285 254.461 445.995 258.908C446.712 263.363 447.064 266.96 447.064 269.719C447.071 271.929 446.819 273.292 446.329 273.781C445.955 274.156 445.464 274.189 444.869 273.871L409.36 258.859C407.084 258.019 405.551 257.676 404.727 257.831C404.073 257.864 403.56 257.969 403.168 258.133C402.768 258.288 402.417 258.459 402.116 258.631C401.821 258.793 401.576 258.875 401.413 258.875C401.251 258.875 401.039 258.76 400.801 258.524C400.409 258.133 400.721 257.431 401.732 256.42ZM421.208 295.477L416.997 291.265C416.615 290.883 416.597 290.508 416.956 290.148C417.544 289.561 418.311 289.007 419.275 288.5C420.229 287.985 420.955 287.977 421.444 288.468L425.459 292.481C425.988 293.012 426.087 293.436 425.76 293.763C425.18 294.343 424.381 294.88 423.353 295.369C422.335 295.852 421.623 295.892 421.208 295.477ZM390.757 320.149C390.057 319.448 389.305 318.272 388.523 316.625C387.732 314.969 387.2 313.001 386.939 310.717C386.661 308.432 386.988 305.953 387.887 303.26C388.784 300.584 390.521 297.948 393.092 295.377C394.601 293.868 395.833 292.931 396.795 292.555C397.751 292.189 398.68 292.253 399.569 292.752C400.459 293.249 401.724 294.285 403.38 295.86C403.812 295.64 404.156 295.656 404.408 295.909C404.661 296.161 404.351 296.928 403.477 298.209L391.893 314.609C393.827 316.543 395.883 317.245 398.052 316.691C400.215 316.144 402.54 314.635 405.012 312.161C406.921 310.253 408.413 308.467 409.5 306.793C410.592 305.112 411.457 303.545 412.119 302.069C412.772 300.6 413.147 299.816 413.228 299.736C413.456 299.507 413.727 299.564 414.052 299.891C414.379 300.216 414.493 300.493 414.403 300.715C413.179 303.571 411.507 306.499 409.352 309.485C407.215 312.472 405.159 314.952 403.192 316.919C400.5 319.611 398.216 321.275 396.331 321.92C394.439 322.556 392.577 321.969 390.757 320.149ZM390.767 313.288L398.885 302.036C399.789 300.788 400.255 299.947 400.296 299.532C400.329 299.107 400.019 298.569 399.365 297.916C397.139 295.689 394.871 295.737 392.553 298.055C391.117 299.556 390.065 301.26 389.396 303.171C388.743 305.08 388.523 306.931 388.759 308.735C388.996 310.523 389.673 312.047 390.767 313.288ZM353.757 356.384C353.413 356.04 352.133 354.499 349.929 351.773C347.727 349.048 345.908 346.984 344.488 345.564C344.096 345.173 344.039 344.839 344.3 344.577C344.619 344.259 345.401 343.9 346.651 343.5C347.907 343.108 348.624 343.011 348.813 343.199C348.845 343.231 349.22 343.932 349.937 345.288C350.656 346.657 351.448 348.02 352.32 349.4C353.193 350.779 354.091 351.921 355.021 352.851C357.183 355.013 358.995 355.356 360.472 353.879C361.589 352.76 362.308 351.129 362.617 349.008C362.928 346.887 362.863 344.617 362.413 342.211C361.973 339.812 361.263 337.715 360.3 335.921C359.599 334.664 359.28 333.775 359.321 333.26C359.377 332.747 359.884 331.915 360.839 330.764C360.993 330.92 361.165 331.14 361.385 331.424C361.597 331.701 361.785 331.939 361.956 332.111C363.075 333.228 364.697 334.525 366.828 336.003C368.949 337.487 370.915 338.671 372.719 339.56C374.505 340.449 375.599 340.709 375.973 340.335C376.496 339.812 376.904 339.683 377.189 339.968C377.344 340.123 377.279 340.709 376.993 341.747C376.863 342.187 376.724 342.7 376.577 343.288C376.431 343.875 376.3 344.332 376.195 344.667C376.08 344.993 375.949 345.221 375.811 345.361C375.476 345.696 374.472 345.376 372.792 344.397C371.111 343.419 368.997 342.04 366.436 340.277C363.891 338.516 362.609 337.627 362.609 337.627L362.503 337.732C363.156 339.528 363.613 341.404 363.865 343.385C364.127 345.361 364.192 347.285 364.053 349.155C363.915 351.024 363.58 352.712 363.059 354.213C362.536 355.713 361.859 356.881 361.035 357.705C359.052 359.688 356.62 359.248 353.757 356.384ZM334.117 358.381C334.975 357.297 335.529 356.188 335.791 355.061C336.753 355.845 338.393 357.192 340.727 359.084C343.06 360.993 345.312 362.625 347.491 363.987C349.669 365.351 351.048 365.733 351.635 365.145C351.872 364.909 352.117 364.925 352.387 365.196C352.655 365.464 352.541 366.28 352.052 367.635C351.569 368.98 351.137 369.855 350.755 370.237C350.509 370.417 350.028 370.327 349.311 369.968C348.592 369.592 347.556 368.965 346.193 368.043C344.839 367.129 343.819 366.468 343.125 366.035C343.289 369.152 342.725 372.245 341.42 375.296C340.115 378.348 338.409 380.933 336.28 383.064C332.061 387.281 328.553 387.983 325.739 385.168C324.099 383.529 323.063 381.121 322.613 377.916C322.165 374.725 322.361 371.493 323.209 368.231C324.049 364.959 325.388 362.413 327.215 360.585C328.985 358.815 331.287 358.081 334.117 358.381ZM341.616 365.685C341.469 365.293 340.899 364.591 339.895 363.588C339.356 363.049 338.623 362.477 337.683 361.883C336.753 361.279 335.864 360.781 335.015 360.389C334.176 360.005 333.628 359.835 333.392 359.908C331.94 360.365 330.813 360.807 330.005 361.221C329.199 361.639 328.349 362.291 327.46 363.18C326.147 364.493 325.24 366.183 324.752 368.239C324.245 370.295 324.279 372.416 324.833 374.587C325.396 376.764 326.497 378.683 328.145 380.329C328.847 381.032 329.704 381.497 330.724 381.717C331.735 381.945 332.78 381.896 333.848 381.563C334.917 381.228 335.888 380.616 336.761 379.743C337.74 378.763 338.655 377.441 339.495 375.803C340.344 374.153 340.963 372.408 341.363 370.588C341.763 368.768 341.852 367.129 341.616 365.685ZM308.131 385.74C308.645 382.811 309.119 381.131 309.559 380.689C309.697 380.551 309.991 380.713 310.44 381.163C312.529 383.399 315.679 386.612 319.888 390.823C322.213 393.247 324.14 395.743 325.665 398.296C327.191 400.865 328.203 403.461 328.7 406.096C329.189 408.74 329.035 411.343 328.235 413.905C327.444 416.475 325.885 418.915 323.568 421.232C322.092 422.708 320.452 423.744 318.649 424.34C316.837 424.927 315.18 425.147 313.672 424.992C312.171 424.829 311.125 424.455 310.531 423.859C310.089 423.419 309.713 422.488 309.412 421.06C309.111 419.632 309.143 418.701 309.503 418.245C309.633 418.115 309.771 418.107 309.893 418.229C312.088 420.423 314.536 421.369 317.22 421.068C319.913 420.757 322.433 419.428 324.792 417.071C326.783 415.08 327.688 412.852 327.501 410.396C327.313 407.94 326.465 405.541 324.956 403.199C323.455 400.865 321.643 398.647 319.555 396.559C318.828 395.832 318.085 395.123 317.319 394.437C316.551 393.736 316.069 393.287 315.875 393.091C315.801 396.281 315.083 399.479 313.728 402.677C312.373 405.892 310.636 408.657 308.531 410.992C306.793 412.729 304.999 413.708 303.139 413.937C301.277 414.165 299.532 413.464 297.9 411.832C296.383 410.315 295.395 408.103 294.937 405.199C294.473 402.287 294.555 399.399 295.183 396.501C295.803 393.613 296.831 391.46 298.243 390.048C300.861 387.428 304.157 385.992 308.131 385.74ZM314.063 391.476C313.94 391.076 313.524 390.529 312.839 389.844C312.219 389.224 311.436 388.588 310.473 387.933C309.527 387.281 308.841 386.972 308.425 387.013C307.511 386.979 306.156 387.533 304.377 388.644C302.592 389.761 301.083 390.928 299.867 392.144C298.177 393.833 296.969 396.069 296.244 398.852C295.517 401.635 296.252 404.113 298.439 406.301C300.455 408.315 302.453 409.059 304.435 408.528C306.409 408.005 308.107 407.027 309.519 405.615C311.085 404.048 312.399 401.869 313.443 399.08C314.504 396.289 314.707 393.752 314.063 391.476Z" fill="#161413"/>
<path fill-rule="evenodd" clip-rule="evenodd" d="M193.484 283.792C180.948 283.792 170.792 293.947 170.792 306.481C170.792 319.067 180.948 329.221 193.484 329.221C206.068 329.221 216.223 319.067 216.223 306.481C216.223 293.947 206.068 283.792 193.484 283.792ZM200.432 185.545L65.0145 321.933L96.6956 322.468L233.667 185.74L200.432 185.545ZM186.001 184.477H149.9L103.983 231.267V247.059H123.662L186.001 184.477ZM264.229 74.2777L102.671 74.4717L102.525 101.925H233.861L173.951 162.612H255.725L316.461 100.71L347.752 134.528L430.256 134.477L429.916 106.93H362.717L341.533 74.4717L264.229 74.2777ZM306.452 21.4627C293.916 21.4627 283.761 31.6163 283.761 44.1528C283.761 56.7373 293.916 66.8923 306.452 66.8923C319.037 66.8923 329.192 56.7373 329.192 44.1528C329.192 31.6163 319.037 21.4627 306.452 21.4627Z" fill="#E20010"/>
</svg>
