<?xml version="1.0" encoding="UTF-8" standalone="no"?>
<!DOCTYPE svg PUBLIC "-//W3C//DTD SVG 1.1//EN" "http://www.w3.org/Graphics/SVG/1.1/DTD/svg11.dtd">
<svg xmlns="http://www.w3.org/2000/svg" version="1.1" viewBox="0.00 0.00 1146.00 526.00">
<g stroke-width="2.00" fill="none" stroke-linecap="butt">
<path stroke="#b2d3e6" vector-effect="non-scaling-stroke" d="
  M 633.50 41.08
  C 631.31 41.15 628.65 40.47 628.68 37.72
  C 628.77 29.23 628.32 7.60 615.98 6.77
  Q 611.95 6.50 605.11 9.62
  C 594.36 14.52 585.58 20.35 571.78 29.18
  Q 566.11 32.81 557.98 37.10
  Q 546.37 43.23 536.48 50.40
  C 531.42 54.06 517.73 64.91 521.61 72.31
  Q 524.19 77.24 528.42 80.76
  Q 529.22 81.43 538.00 86.66
  Q 559.05 99.20 580.32 112.41
  Q 589.83 118.32 599.54 123.25
  C 604.76 125.91 610.97 128.90 616.97 128.83
  C 624.05 128.74 627.18 123.16 627.98 116.99
  Q 628.86 110.14 628.76 102.50
  C 628.72 99.96 628.77 96.00 632.42 95.91
  Q 679.60 94.70 726.51 100.26
  Q 747.82 102.79 766.54 112.93
  Q 825.69 144.98 883.71 179.83
  C 901.43 190.47 921.03 198.50 941.66 200.65
  Q 983.61 205.01 1024.43 209.95
  C 1028.97 210.50 1032.31 212.74 1031.99 218.00
  Q 1030.60 240.91 1031.82 262.33
  Q 1032.33 271.22 1033.86 280.22
  C 1035.01 286.92 1036.95 294.66 1041.26 299.60
  C 1055.97 316.46 1060.66 337.91 1056.56 359.60
  Q 1054.67 369.60 1047.72 375.24
  Q 1042.29 379.64 1037.21 380.00
  C 1002.93 382.39 967.91 383.77 932.76 385.22
  C 921.31 385.70 908.71 387.50 901.10 397.09
  Q 897.20 402.00 894.83 407.32
  Q 891.37 415.09 887.95 423.21
  C 878.49 445.68 855.34 457.61 831.36 452.28
  C 810.50 447.64 794.52 419.36 787.77 400.33
  C 787.01 398.19 785.49 397.09 783.41 396.27
  Q 773.07 392.22 763.87 390.93
  Q 756.46 389.90 745.26 390.47
  Q 716.90 391.91 686.89 392.73
  C 672.43 393.13 662.43 401.15 658.91 415.29
  Q 656.71 424.09 661.60 432.96
  Q 668.26 445.08 680.59 448.28
  Q 686.79 449.89 699.72 449.13
  Q 720.74 447.91 744.72 446.87
  C 746.78 446.78 748.67 447.99 749.20 450.04
  C 751.30 458.21 757.67 465.70 763.57 471.86
  Q 772.26 480.93 781.74 488.57
  Q 802.96 505.69 830.92 508.56
  C 845.13 510.01 860.94 509.07 874.13 504.74
  Q 915.43 491.19 936.46 452.41
  C 940.28 445.37 947.37 440.06 955.70 440.01
  Q 998.14 439.77 1037.11 436.47
  Q 1053.60 435.08 1067.64 428.89
  C 1088.87 419.54 1102.09 401.69 1108.63 379.59
  Q 1121.11 337.36 1105.16 296.81
  Q 1104.84 295.98 1098.80 282.97
  C 1092.37 269.10 1089.50 254.87 1088.28 240.49
  Q 1087.23 228.22 1086.63 214.85
  C 1086.13 203.71 1085.06 195.10 1081.33 186.31
  C 1074.65 170.60 1060.92 160.57 1044.68 156.62
  Q 1025.41 151.93 997.16 148.95
  Q 977.95 146.92 957.81 145.39
  C 947.13 144.58 935.00 142.42 924.88 138.18
  Q 919.90 136.10 910.24 130.03
  Q 896.39 121.34 881.26 112.75
  Q 857.95 99.52 829.65 83.10
  Q 815.01 74.61 801.00 67.38
  Q 785.88 59.58 773.52 54.70
  C 747.32 44.37 717.06 41.08 688.25 40.68
  Q 657.70 40.24 633.50 41.08"
/>
<path stroke="#bedccc" vector-effect="non-scaling-stroke" d="
  M 81.89 396.79
  A 1.58 1.57 -58.5 0 1 81.36 394.57
  C 85.98 387.40 87.72 380.28 88.25 371.59
  C 89.23 355.30 90.44 339.07 93.76 323.05
  C 97.64 304.38 106.28 284.25 124.53 275.65
  C 144.54 266.22 165.90 258.33 187.48 252.40
  Q 242.53 237.28 295.25 221.56
  C 310.63 216.97 327.28 210.21 340.94 201.39
  Q 346.93 197.52 356.88 189.77
  C 389.30 164.51 422.21 139.37 457.34 119.64
  C 464.81 115.45 472.44 111.81 480.15 107.97
  C 492.20 101.97 499.26 92.07 495.45 77.86
  C 490.97 61.13 479.66 51.33 461.56 56.91
  Q 436.89 64.51 415.61 78.36
  C 385.60 97.89 355.42 119.81 326.53 142.67
  C 316.64 150.49 306.23 157.41 294.97 161.36
  C 276.43 167.87 256.88 174.08 237.68 179.88
  Q 193.27 193.30 153.76 205.54
  Q 137.87 210.46 122.50 215.76
  C 107.73 220.86 93.75 227.88 81.62 237.50
  Q 55.84 257.94 44.31 291.17
  C 38.01 309.33 35.16 328.33 33.99 347.79
  C 33.54 355.20 30.36 364.63 25.45 371.18
  C 13.58 386.99 18.08 412.70 28.28 428.31
  C 36.85 441.44 54.60 448.41 69.52 450.52
  Q 76.24 451.47 86.47 451.27
  Q 115.34 450.70 144.76 450.54
  Q 151.61 450.51 155.55 455.62
  C 161.67 463.57 167.51 472.79 175.21 479.79
  C 194.29 497.11 216.40 508.02 242.00 509.20
  Q 260.36 510.05 280.49 504.39
  C 294.64 500.42 306.25 493.30 316.77 483.27
  C 326.48 474.01 335.11 463.24 343.44 452.54
  A 5.25 5.23 -71.2 0 1 347.53 450.52
  L 520.22 448.94
  A 3.26 3.24 88.3 0 1 523.49 452.03
  Q 524.05 463.31 524.50 474.35
  C 524.72 479.86 532.39 482.03 536.67 481.86
  Q 540.18 481.72 546.27 478.37
  C 567.82 466.51 588.93 453.69 609.58 440.32
  Q 616.89 435.59 622.30 429.63
  C 628.49 422.81 630.24 414.31 621.40 408.56
  Q 584.25 384.43 544.08 360.79
  C 540.56 358.72 536.58 359.33 532.83 360.42
  C 525.92 362.43 522.33 367.26 522.43 374.92
  Q 522.50 380.81 523.38 387.63
  C 523.80 390.86 522.89 394.48 519.00 394.44
  Q 434.61 393.67 345.60 394.44
  Q 330.83 394.57 315.05 397.05
  C 307.62 398.22 304.32 402.36 301.41 408.79
  C 294.54 423.98 283.87 439.95 270.13 448.35
  C 260.47 454.25 249.41 454.45 238.37 453.20
  C 218.21 450.92 200.65 426.28 193.47 408.44
  C 190.86 401.95 186.43 399.05 179.10 398.03
  Q 166.03 396.22 155.75 396.33
  Q 117.64 396.72 83.10 397.12
  Q 82.46 397.12 81.89 396.79"
/>
</g>
<path fill="#fbfff7" d="
  M 0.00 0.00
  L 1146.00 0.00
  L 1146.00 526.00
  L 0.00 526.00
  L 0.00 0.00
  Z
  M 633.50 41.08
  C 631.31 41.15 628.65 40.47 628.68 37.72
  C 628.77 29.23 628.32 7.60 615.98 6.77
  Q 611.95 6.50 605.11 9.62
  C 594.36 14.52 585.58 20.35 571.78 29.18
  Q 566.11 32.81 557.98 37.10
  Q 546.37 43.23 536.48 50.40
  C 531.42 54.06 517.73 64.91 521.61 72.31
  Q 524.19 77.24 528.42 80.76
  Q 529.22 81.43 538.00 86.66
  Q 559.05 99.20 580.32 112.41
  Q 589.83 118.32 599.54 123.25
  C 604.76 125.91 610.97 128.90 616.97 128.83
  C 624.05 128.74 627.18 123.16 627.98 116.99
  Q 628.86 110.14 628.76 102.50
  C 628.72 99.96 628.77 96.00 632.42 95.91
  Q 679.60 94.70 726.51 100.26
  Q 747.82 102.79 766.54 112.93
  Q 825.69 144.98 883.71 179.83
  C 901.43 190.47 921.03 198.50 941.66 200.65
  Q 983.61 205.01 1024.43 209.95
  C 1028.97 210.50 1032.31 212.74 1031.99 218.00
  Q 1030.60 240.91 1031.82 262.33
  Q 1032.33 271.22 1033.86 280.22
  C 1035.01 286.92 1036.95 294.66 1041.26 299.60
  C 1055.97 316.46 1060.66 337.91 1056.56 359.60
  Q 1054.67 369.60 1047.72 375.24
  Q 1042.29 379.64 1037.21 380.00
  C 1002.93 382.39 967.91 383.77 932.76 385.22
  C 921.31 385.70 908.71 387.50 901.10 397.09
  Q 897.20 402.00 894.83 407.32
  Q 891.37 415.09 887.95 423.21
  C 878.49 445.68 855.34 457.61 831.36 452.28
  C 810.50 447.64 794.52 419.36 787.77 400.33
  C 787.01 398.19 785.49 397.09 783.41 396.27
  Q 773.07 392.22 763.87 390.93
  Q 756.46 389.90 745.26 390.47
  Q 716.90 391.91 686.89 392.73
  C 672.43 393.13 662.43 401.15 658.91 415.29
  Q 656.71 424.09 661.60 432.96
  Q 668.26 445.08 680.59 448.28
  Q 686.79 449.89 699.72 449.13
  Q 720.74 447.91 744.72 446.87
  C 746.78 446.78 748.67 447.99 749.20 450.04
  C 751.30 458.21 757.67 465.70 763.57 471.86
  Q 772.26 480.93 781.74 488.57
  Q 802.96 505.69 830.92 508.56
  C 845.13 510.01 860.94 509.07 874.13 504.74
  Q 915.43 491.19 936.46 452.41
  C 940.28 445.37 947.37 440.06 955.70 440.01
  Q 998.14 439.77 1037.11 436.47
  Q 1053.60 435.08 1067.64 428.89
  C 1088.87 419.54 1102.09 401.69 1108.63 379.59
  Q 1121.11 337.36 1105.16 296.81
  Q 1104.84 295.98 1098.80 282.97
  C 1092.37 269.10 1089.50 254.87 1088.28 240.49
  Q 1087.23 228.22 1086.63 214.85
  C 1086.13 203.71 1085.06 195.10 1081.33 186.31
  C 1074.65 170.60 1060.92 160.57 1044.68 156.62
  Q 1025.41 151.93 997.16 148.95
  Q 977.95 146.92 957.81 145.39
  C 947.13 144.58 935.00 142.42 924.88 138.18
  Q 919.90 136.10 910.24 130.03
  Q 896.39 121.34 881.26 112.75
  Q 857.95 99.52 829.65 83.10
  Q 815.01 74.61 801.00 67.38
  Q 785.88 59.58 773.52 54.70
  C 747.32 44.37 717.06 41.08 688.25 40.68
  Q 657.70 40.24 633.50 41.08
  Z
  M 81.89 396.79
  A 1.58 1.57 -58.5 0 1 81.36 394.57
  C 85.98 387.40 87.72 380.28 88.25 371.59
  C 89.23 355.30 90.44 339.07 93.76 323.05
  C 97.64 304.38 106.28 284.25 124.53 275.65
  C 144.54 266.22 165.90 258.33 187.48 252.40
  Q 242.53 237.28 295.25 221.56
  C 310.63 216.97 327.28 210.21 340.94 201.39
  Q 346.93 197.52 356.88 189.77
  C 389.30 164.51 422.21 139.37 457.34 119.64
  C 464.81 115.45 472.44 111.81 480.15 107.97
  C 492.20 101.97 499.26 92.07 495.45 77.86
  C 490.97 61.13 479.66 51.33 461.56 56.91
  Q 436.89 64.51 415.61 78.36
  C 385.60 97.89 355.42 119.81 326.53 142.67
  C 316.64 150.49 306.23 157.41 294.97 161.36
  C 276.43 167.87 256.88 174.08 237.68 179.88
  Q 193.27 193.30 153.76 205.54
  Q 137.87 210.46 122.50 215.76
  C 107.73 220.86 93.75 227.88 81.62 237.50
  Q 55.84 257.94 44.31 291.17
  C 38.01 309.33 35.16 328.33 33.99 347.79
  C 33.54 355.20 30.36 364.63 25.45 371.18
  C 13.58 386.99 18.08 412.70 28.28 428.31
  C 36.85 441.44 54.60 448.41 69.52 450.52
  Q 76.24 451.47 86.47 451.27
  Q 115.34 450.70 144.76 450.54
  Q 151.61 450.51 155.55 455.62
  C 161.67 463.57 167.51 472.79 175.21 479.79
  C 194.29 497.11 216.40 508.02 242.00 509.20
  Q 260.36 510.05 280.49 504.39
  C 294.64 500.42 306.25 493.30 316.77 483.27
  C 326.48 474.01 335.11 463.24 343.44 452.54
  A 5.25 5.23 -71.2 0 1 347.53 450.52
  L 520.22 448.94
  A 3.26 3.24 88.3 0 1 523.49 452.03
  Q 524.05 463.31 524.50 474.35
  C 524.72 479.86 532.39 482.03 536.67 481.86
  Q 540.18 481.72 546.27 478.37
  C 567.82 466.51 588.93 453.69 609.58 440.32
  Q 616.89 435.59 622.30 429.63
  C 628.49 422.81 630.24 414.31 621.40 408.56
  Q 584.25 384.43 544.08 360.79
  C 540.56 358.72 536.58 359.33 532.83 360.42
  C 525.92 362.43 522.33 367.26 522.43 374.92
  Q 522.50 380.81 523.38 387.63
  C 523.80 390.86 522.89 394.48 519.00 394.44
  Q 434.61 393.67 345.60 394.44
  Q 330.83 394.57 315.05 397.05
  C 307.62 398.22 304.32 402.36 301.41 408.79
  C 294.54 423.98 283.87 439.95 270.13 448.35
  C 260.47 454.25 249.41 454.45 238.37 453.20
  C 218.21 450.92 200.65 426.28 193.47 408.44
  C 190.86 401.95 186.43 399.05 179.10 398.03
  Q 166.03 396.22 155.75 396.33
  Q 117.64 396.72 83.10 397.12
  Q 82.46 397.12 81.89 396.79
  Z"
/>
<path fill="#69a7d5" d="
  M 628.68 37.72
  C 628.65 40.47 631.31 41.15 633.50 41.08
  Q 657.70 40.24 688.25 40.68
  C 717.06 41.08 747.32 44.37 773.52 54.70
  Q 785.88 59.58 801.00 67.38
  Q 815.01 74.61 829.65 83.10
  Q 857.95 99.52 881.26 112.75
  Q 896.39 121.34 910.24 130.03
  Q 919.90 136.10 924.88 138.18
  C 935.00 142.42 947.13 144.58 957.81 145.39
  Q 977.95 146.92 997.16 148.95
  Q 1025.41 151.93 1044.68 156.62
  C 1060.92 160.57 1074.65 170.60 1081.33 186.31
  C 1085.06 195.10 1086.13 203.71 1086.63 214.85
  Q 1087.23 228.22 1088.28 240.49
  C 1089.50 254.87 1092.37 269.10 1098.80 282.97
  Q 1104.84 295.98 1105.16 296.81
  Q 1121.11 337.36 1108.63 379.59
  C 1102.09 401.69 1088.87 419.54 1067.64 428.89
  Q 1053.60 435.08 1037.11 436.47
  Q 998.14 439.77 955.70 440.01
  C 947.37 440.06 940.28 445.37 936.46 452.41
  Q 915.43 491.19 874.13 504.74
  C 860.94 509.07 845.13 510.01 830.92 508.56
  Q 802.96 505.69 781.74 488.57
  Q 772.26 480.93 763.57 471.86
  C 757.67 465.70 751.30 458.21 749.20 450.04
  C 748.67 447.99 746.78 446.78 744.72 446.87
  Q 720.74 447.91 699.72 449.13
  Q 686.79 449.89 680.59 448.28
  Q 668.26 445.08 661.60 432.96
  Q 656.71 424.09 658.91 415.29
  C 662.43 401.15 672.43 393.13 686.89 392.73
  Q 716.90 391.91 745.26 390.47
  Q 756.46 389.90 763.87 390.93
  Q 773.07 392.22 783.41 396.27
  C 785.49 397.09 787.01 398.19 787.77 400.33
  C 794.52 419.36 810.50 447.64 831.36 452.28
  C 855.34 457.61 878.49 445.68 887.95 423.21
  Q 891.37 415.09 894.83 407.32
  Q 897.20 402.00 901.10 397.09
  C 908.71 387.50 921.31 385.70 932.76 385.22
  C 967.91 383.77 1002.93 382.39 1037.21 380.00
  Q 1042.29 379.64 1047.72 375.24
  Q 1054.67 369.60 1056.56 359.60
  C 1060.66 337.91 1055.97 316.46 1041.26 299.60
  C 1036.95 294.66 1035.01 286.92 1033.86 280.22
  Q 1032.33 271.22 1031.82 262.33
  Q 1030.60 240.91 1031.99 218.00
  C 1032.31 212.74 1028.97 210.50 1024.43 209.95
  Q 983.61 205.01 941.66 200.65
  C 921.03 198.50 901.43 190.47 883.71 179.83
  Q 825.69 144.98 766.54 112.93
  Q 747.82 102.79 726.51 100.26
  Q 679.60 94.70 632.42 95.91
  C 628.77 96.00 628.72 99.96 628.76 102.50
  Q 628.86 110.14 627.98 116.99
  C 627.18 123.16 624.05 128.74 616.97 128.83
  C 610.97 128.90 604.76 125.91 599.54 123.25
  Q 589.83 118.32 580.32 112.41
  Q 559.05 99.20 538.00 86.66
  Q 529.22 81.43 528.42 80.76
  Q 524.19 77.24 521.61 72.31
  C 517.73 64.91 531.42 54.06 536.48 50.40
  Q 546.37 43.23 557.98 37.10
  Q 566.11 32.81 571.78 29.18
  C 585.58 20.35 594.36 14.52 605.11 9.62
  Q 611.95 6.50 615.98 6.77
  C 628.32 7.60 628.77 29.23 628.68 37.72
  Z"
/>
<path fill="#81b9a1" d="
  M 81.89 396.79
  Q 82.46 397.12 83.10 397.12
  Q 117.64 396.72 155.75 396.33
  Q 166.03 396.22 179.10 398.03
  C 186.43 399.05 190.86 401.95 193.47 408.44
  C 200.65 426.28 218.21 450.92 238.37 453.20
  C 249.41 454.45 260.47 454.25 270.13 448.35
  C 283.87 439.95 294.54 423.98 301.41 408.79
  C 304.32 402.36 307.62 398.22 315.05 397.05
  Q 330.83 394.57 345.60 394.44
  Q 434.61 393.67 519.00 394.44
  C 522.89 394.48 523.80 390.86 523.38 387.63
  Q 522.50 380.81 522.43 374.92
  C 522.33 367.26 525.92 362.43 532.83 360.42
  C 536.58 359.33 540.56 358.72 544.08 360.79
  Q 584.25 384.43 621.40 408.56
  C 630.24 414.31 628.49 422.81 622.30 429.63
  Q 616.89 435.59 609.58 440.32
  C 588.93 453.69 567.82 466.51 546.27 478.37
  Q 540.18 481.72 536.67 481.86
  C 532.39 482.03 524.72 479.86 524.50 474.35
  Q 524.05 463.31 523.49 452.03
  A 3.26 3.24 88.3 0 0 520.22 448.94
  L 347.53 450.52
  A 5.25 5.23 -71.2 0 0 343.44 452.54
  C 335.11 463.24 326.48 474.01 316.77 483.27
  C 306.25 493.30 294.64 500.42 280.49 504.39
  Q 260.36 510.05 242.00 509.20
  C 216.40 508.02 194.29 497.11 175.21 479.79
  C 167.51 472.79 161.67 463.57 155.55 455.62
  Q 151.61 450.51 144.76 450.54
  Q 115.34 450.70 86.47 451.27
  Q 76.24 451.47 69.52 450.52
  C 54.60 448.41 36.85 441.44 28.28 428.31
  C 18.08 412.70 13.58 386.99 25.45 371.18
  C 30.36 364.63 33.54 355.20 33.99 347.79
  C 35.16 328.33 38.01 309.33 44.31 291.17
  Q 55.84 257.94 81.62 237.50
  C 93.75 227.88 107.73 220.86 122.50 215.76
  Q 137.87 210.46 153.76 205.54
  Q 193.27 193.30 237.68 179.88
  C 256.88 174.08 276.43 167.87 294.97 161.36
  C 306.23 157.41 316.64 150.49 326.53 142.67
  C 355.42 119.81 385.60 97.89 415.61 78.36
  Q 436.89 64.51 461.56 56.91
  C 479.66 51.33 490.97 61.13 495.45 77.86
  C 499.26 92.07 492.20 101.97 480.15 107.97
  C 472.44 111.81 464.81 115.45 457.34 119.64
  C 422.21 139.37 389.30 164.51 356.88 189.77
  Q 346.93 197.52 340.94 201.39
  C 327.28 210.21 310.63 216.97 295.25 221.56
  Q 242.53 237.28 187.48 252.40
  C 165.90 258.33 144.54 266.22 124.53 275.65
  C 106.28 284.25 97.64 304.38 93.76 323.05
  C 90.44 339.07 89.23 355.30 88.25 371.59
  C 87.72 380.28 85.98 387.40 81.36 394.57
  A 1.58 1.57 -58.5 0 0 81.89 396.79
  Z"
/>
</svg>
